Jost-300-Light.ufo
<glyph name="exclam" format="1">
  <advance width="284"/>
  <unicode hex="0021"/>
  <outline>
    <contour>
      <point x="109.6" y="700" type="line"/>
      <point x="175.2" y="700" type="line"/>
      <point x="161.6" y="200" type="line"/>
      <point x="123.2" y="200" type="line"/>
    </contour>
    <contour>
      <point x="105" y="24.4" type="curve" smooth="yes"/>
      <point x="105" y="45.2"/>
      <point x="122" y="61.8"/>
      <point x="142.4" y="61.8" type="curve" smooth="yes"/>
      <point x="162.8" y="61.8"/>
      <point x="179.8" y="45.2"/>
      <point x="179.8" y="24.4" type="curve" smooth="yes"/>
      <point x="179.8" y="3.6"/>
      <point x="162.8" y="-13"/>
      <point x="142.4" y="-13" type="curve" smooth="yes"/>
      <point x="122" y="-13"/>
      <point x="105" y="3.6"/>
    </contour>
  </outline>
</glyph>
<glyph name="quotedbl" format="1">
  <advance width="440"/>
  <unicode hex="0022"/>
  <outline>
    <contour>
      <point x="134" y="700" type="line"/>
      <point x="196.2" y="700" type="line"/>
      <point x="119.8" y="408" type="line"/>
      <point x="84" y="408" type="line"/>
    </contour>
    <contour>
      <point x="314" y="700" type="line"/>
      <point x="376.2" y="700" type="line"/>
      <point x="299.8" y="408" type="line"/>
      <point x="264" y="408" type="line"/>
    </contour>
  </outline>
</glyph>
<glyph name="numbersign" format="1">
  <advance width="591"/>
  <unicode hex="0023"/>
  <outline>
    <contour>
      <point x="75" y="445.6" type="line"/>
      <point x="75" y="489" type="line"/>
      <point x="556.4" y="489" type="line"/>
      <point x="556.4" y="445.6" type="line"/>
      <point x="426" y="445.6" type="line" smooth="yes"/>
      <point x="416" y="445.6" type="line" smooth="yes"/>
      <point x="217.6" y="445.6" type="line" smooth="yes"/>
      <point x="208" y="445.6" type="line" smooth="yes"/>
    </contour>
    <contour>
      <point x="35" y="216" type="line"/>
      <point x="35" y="259.4" type="line"/>
      <point x="161.6" y="259.4" type="line" smooth="yes"/>
      <point x="173.2" y="259.4" type="line" smooth="yes"/>
      <point x="374.4" y="259.4" type="line" smooth="yes"/>
      <point x="388.8" y="259.4" type="line" smooth="yes"/>
      <point x="516.4" y="259.4" type="line"/>
      <point x="516.4" y="216" type="line"/>
    </contour>
    <contour>
      <point x="461" y="700" type="line"/>
      <point x="510.4" y="700" type="line"/>
      <point x="340.4" y="0" type="line"/>
      <point x="291" y="0" type="line"/>
      <point x="347.6" y="234.4" type="line" smooth="yes"/>
      <point x="351" y="246" type="line" smooth="yes"/>
      <point x="402.6" y="460.4" type="line" smooth="yes"/>
      <point x="405.4" y="471.6" type="line" smooth="yes"/>
    </contour>
    <contour>
      <point x="251" y="700" type="line"/>
      <point x="300.4" y="700" type="line"/>
      <point x="245.4" y="474" type="line" smooth="yes"/>
      <point x="242.6" y="462.8" type="line" smooth="yes"/>
      <point x="189.4" y="244" type="line" smooth="yes"/>
      <point x="187" y="232.8" type="line" smooth="yes"/>
      <point x="130.4" y="0" type="line"/>
      <point x="81" y="0" type="line"/>
    </contour>
  </outline>
</glyph>
<glyph name="percent" format="1">
  <advance width="731"/>
  <unicode hex="0025"/>
  <outline>
    <contour>
      <point x="35" y="554" type="curve" smooth="yes"/>
      <point x="35" y="641"/>
      <point x="96" y="710"/>
      <point x="189" y="710" type="curve" smooth="yes"/>
      <point x="282" y="710"/>
      <point x="343" y="641"/>
      <point x="343" y="554" type="curve" smooth="yes"/>
      <point x="343" y="467"/>
      <point x="282" y="398"/>
      <point x="189" y="398" type="curve" smooth="yes"/>
      <point x="96" y="398"/>
      <point x="35" y="467"/>
    </contour>
    <contour>
      <point x="81.6" y="554" type="curve" smooth="yes"/>
      <point x="81.6" y="493"/>
      <point x="122" y="440.6"/>
      <point x="189" y="440.6" type="curve" smooth="yes"/>
      <point x="256" y="440.6"/>
      <point x="296.4" y="493"/>
      <point x="296.4" y="554" type="curve" smooth="yes"/>
      <point x="296.4" y="615"/>
      <point x="256" y="667"/>
      <point x="189" y="667" type="curve" smooth="yes"/>
      <point x="122" y="667"/>
      <point x="81.6" y="615"/>
    </contour>
    <contour>
      <point x="388" y="146" type="curve" smooth="yes"/>
      <point x="388" y="233"/>
      <point x="449" y="302"/>
      <point x="542" y="302" type="curve" smooth="yes"/>
      <point x="635" y="302"/>
      <point x="696" y="233"/>
      <point x="696" y="146" type="curve" smooth="yes"/>
      <point x="696" y="59"/>
      <point x="635" y="-10"/>
      <point x="542" y="-10" type="curve" smooth="yes"/>
      <point x="449" y="-10"/>
      <point x="388" y="59"/>
    </contour>
    <contour>
      <point x="434.6" y="146" type="curve" smooth="yes"/>
      <point x="434.6" y="85"/>
      <point x="475" y="32.6"/>
      <point x="542" y="32.6" type="curve" smooth="yes"/>
      <point x="609" y="32.6"/>
      <point x="649.4" y="85"/>
      <point x="649.4" y="146" type="curve" smooth="yes"/>
      <point x="649.4" y="207"/>
      <point x="609" y="259"/>
      <point x="542" y="259" type="curve" smooth="yes"/>
      <point x="475" y="259"/>
      <point x="434.6" y="207"/>
    </contour>
    <contour>
      <point x="567" y="700" type="line"/>
      <point x="616.8" y="700" type="line"/>
      <point x="164" y="0" type="line"/>
      <point x="114.2" y="0" type="line"/>
    </contour>
  </outline>
</glyph>
<glyph name="quotesingle" format="1">
  <advance width="260"/>
  <unicode hex="0027"/>
  <outline>
    <contour>
      <point x="134" y="700" type="line"/>
      <point x="196" y="700" type="line"/>
      <point x="120" y="408" type="line"/>
      <point x="84" y="408" type="line"/>
    </contour>
  </outline>
</glyph>
<glyph name="asterisk" format="1">
  <advance width="592"/>
  <unicode hex="002A"/>
  <outline>
    <contour>
      <point x="467" y="593.4" type="line"/>
      <point x="480.8" y="548.4" type="line"/>
      <point x="301.2" y="497.4" type="line"/>
      <point x="290.4" y="528.6" type="line"/>
    </contour>
    <contour>
      <point x="425" y="375.6" type="line"/>
      <point x="386.8" y="348.2" type="line"/>
      <point x="283.2" y="502.8" type="line"/>
      <point x="308.8" y="522.8" type="line"/>
    </contour>
    <contour>
      <point x="205.2" y="348.2" type="line"/>
      <point x="167" y="375.6" type="line"/>
      <point x="283.2" y="522.8" type="line"/>
      <point x="308.8" y="502.8" type="line"/>
    </contour>
    <contour>
      <point x="111.2" y="548.4" type="line"/>
      <point x="125" y="593.4" type="line"/>
      <point x="301.6" y="528.6" type="line"/>
      <point x="290.8" y="497.4" type="line"/>
    </contour>
    <contour>
      <point x="272.6" y="700" type="line"/>
      <point x="319.4" y="700" type="line"/>
      <point x="312.2" y="513" type="line"/>
      <point x="279.8" y="513" type="line"/>
    </contour>
  </outline>
</glyph>
<glyph name="comma" format="1">
  <advance width="295"/>
  <unicode hex="002C"/>
  <outline>
    <contour>
      <point x="158.8" y="103.6" type="line"/>
      <point x="211.2" y="83.6" type="line"/>
      <point x="101.2" y="-166.4" type="line"/>
      <point x="64" y="-153" type="line"/>
    </contour>
  </outline>
</glyph>
<glyph name="period" format="1">
  <advance width="284"/>
  <unicode hex="002E"/>
  <outline>
    <contour>
      <point x="104.6" y="24.4" type="curve" smooth="yes"/>
      <point x="104.6" y="45.2"/>
      <point x="121.6" y="61.8"/>
      <point x="142" y="61.8" type="curve" smooth="yes"/>
      <point x="162.4" y="61.8"/>
      <point x="179.4" y="45.2"/>
      <point x="179.4" y="24.4" type="curve" smooth="yes"/>
      <point x="179.4" y="3.6"/>
      <point x="162.4" y="-13"/>
      <point x="142" y="-13" type="curve" smooth="yes"/>
      <point x="121.6" y="-13"/>
      <point x="104.6" y="3.6"/>
    </contour>
  </outline>
</glyph>
<glyph name="slash" format="1">
  <advance width="499"/>
  <unicode hex="002F"/>
  <outline>
    <contour>
      <point x="431.2" y="700" type="line"/>
      <point x="484" y="700" type="line"/>
      <point x="67.8" y="-150" type="line"/>
      <point x="15" y="-150" type="line"/>
    </contour>
  </outline>
</glyph>
<glyph name="one" format="1">
  <advance width="434"/>
  <unicode hex="0031"/>
  <outline>
    <contour>
      <point x="86" y="598.8" type="line"/>
      <point x="86" y="656" type="line"/>
      <point x="302" y="708" type="line"/>
      <point x="302" y="0" type="line"/>
      <point x="247" y="0" type="line"/>
      <point x="247" y="641.2" type="line"/>
    </contour>
  </outline>
</glyph>
<glyph name="two" format="1">
  <advance width="547"/>
  <unicode hex="0032"/>
  <outline>
    <contour>
      <point x="22" y="0" type="line"/>
      <point x="348.6" y="345.4" type="line" smooth="yes"/>
      <point x="395.8" y="395.2"/>
      <point x="430.4" y="444"/>
      <point x="430.4" y="511.2" type="curve" smooth="yes"/>
      <point x="430.4" y="579.4"/>
      <point x="381.2" y="659"/>
      <point x="278.2" y="659" type="curve" smooth="yes"/>
      <point x="176.2" y="659"/>
      <point x="113" y="580"/>
      <point x="113" y="460" type="curve"/>
      <point x="58" y="460" type="line"/>
      <point x="58" y="609"/>
      <point x="141.2" y="711"/>
      <point x="278.2" y="711" type="curve" smooth="yes"/>
      <point x="424.2" y="711"/>
      <point x="487" y="597"/>
      <point x="487" y="513" type="curve" smooth="yes"/>
      <point x="487" y="437"/>
      <point x="445.4" y="369.8"/>
      <point x="392.4" y="315.4" type="curve" smooth="yes"/>
      <point x="137" y="52" type="line"/>
      <point x="500" y="52" type="line"/>
      <point x="500" y="0" type="line"/>
    </contour>
  </outline>
</glyph>
<glyph name="three" format="1">
  <advance width="548"/>
  <unicode hex="0033"/>
  <outline>
    <contour>
      <point x="251" y="352" type="curve"/>
      <point x="251" y="388" type="line"/>
      <point x="341" y="388"/>
      <point x="419" y="445"/>
      <point x="419" y="526" type="curve" smooth="yes"/>
      <point x="419" y="599"/>
      <point x="373" y="660"/>
      <point x="286" y="660" type="curve" smooth="yes"/>
      <point x="203" y="660"/>
      <point x="145" y="603"/>
      <point x="145" y="526" type="curve"/>
      <point x="92" y="526" type="line"/>
      <point x="92" y="635"/>
      <point x="170" y="710"/>
      <point x="285" y="710" type="curve" smooth="yes"/>
      <point x="405" y="710"/>
      <point x="475" y="623"/>
      <point x="475" y="528" type="curve" smooth="yes"/>
      <point x="475" y="425"/>
      <point x="374" y="352"/>
    </contour>
    <contour>
      <point x="281" y="-10" type="curve" smooth="yes"/>
      <point x="146" y="-10"/>
      <point x="62" y="76"/>
      <point x="62" y="185" type="curve"/>
      <point x="118" y="185" type="line"/>
      <point x="118" y="103"/>
      <point x="181" y="42"/>
      <point x="281" y="42" type="curve" smooth="yes"/>
      <point x="377" y="42"/>
      <point x="439" y="101"/>
      <point x="439" y="187" type="curve" smooth="yes"/>
      <point x="439" y="289"/>
      <point x="341" y="339"/>
      <point x="251" y="339" type="curve"/>
      <point x="251" y="375" type="line"/>
      <point x="374" y="375"/>
      <point x="495" y="316"/>
      <point x="495" y="181" type="curve" smooth="yes"/>
      <point x="495" y="66"/>
      <point x="406" y="-10"/>
    </contour>
  </outline>
</glyph>
<glyph name="six" format="1">
  <advance width="560"/>
  <unicode hex="0036"/>
  <outline>
    <contour>
      <point x="102.6" y="226" type="curve" smooth="yes"/>
      <point x="102.6" y="118"/>
      <point x="176" y="40.2"/>
      <point x="280" y="40.2" type="curve" smooth="yes"/>
      <point x="384" y="40.2"/>
      <point x="457.4" y="118"/>
      <point x="457.4" y="226" type="curve" smooth="yes"/>
      <point x="457.4" y="330"/>
      <point x="380.4" y="407.8"/>
      <point x="284.4" y="407.8" type="curve" smooth="yes"/>
      <point x="174.4" y="407.8"/>
      <point x="102.6" y="326"/>
    </contour>
    <contour>
      <point x="330" y="700" type="line"/>
      <point x="399" y="700" type="line"/>
      <point x="170.8" y="388.6" type="line"/>
      <point x="167.2" y="391.6" type="line"/>
      <point x="200.2" y="432.2"/>
      <point x="246" y="449"/>
      <point x="303" y="449" type="curve" smooth="yes"/>
      <point x="417" y="449"/>
      <point x="510" y="351"/>
      <point x="510" y="226" type="curve" smooth="yes"/>
      <point x="510" y="86"/>
      <point x="415" y="-10"/>
      <point x="280" y="-10" type="curve" smooth="yes"/>
      <point x="145" y="-10"/>
      <point x="50" y="86"/>
      <point x="50" y="226" type="curve" smooth="yes"/>
      <point x="50" y="283"/>
      <point x="71.8" y="339.6"/>
      <point x="98.8" y="376.6" type="curve" smooth="yes"/>
    </contour>
  </outline>
</glyph>
<glyph name="greater" format="1">
  <advance width="640"/>
  <unicode hex="003E"/>
  <outline>
    <contour>
      <point x="489" y="255" type="line"/>
      <point x="65" y="436" type="line"/>
      <point x="65" y="488" type="line"/>
      <point x="575" y="272" type="line"/>
      <point x="575" y="243" type="line"/>
      <point x="65" y="27" type="line"/>
      <point x="65" y="79" type="line"/>
    </contour>
  </outline>
</glyph>
<glyph name="question" format="1">
  <advance width="551"/>
  <unicode hex="003F"/>
  <outline>
    <contour>
      <point x="430.4" y="508" type="curve" smooth="yes"/>
      <point x="430.4" y="600"/>
      <point x="369" y="661"/>
      <point x="267" y="661" type="curve" smooth="yes"/>
      <point x="190" y="661"/>
      <point x="140.8" y="623.6"/>
      <point x="104.6" y="566" type="curve"/>
      <point x="62" y="593" type="line"/>
      <point x="108" y="663"/>
      <point x="162" y="710"/>
      <point x="273" y="710" type="curve" smooth="yes"/>
      <point x="398" y="710"/>
      <point x="483" y="623"/>
      <point x="483" y="508" type="curve" smooth="yes"/>
      <point x="483" y="399.8"/>
      <point x="382.4" y="313.2"/>
      <point x="264.6" y="308.8" type="curve"/>
      <point x="260.8" y="170" type="line"/>
      <point x="221.6" y="170" type="line"/>
      <point x="207.6" y="345" type="line"/>
      <point x="223.6" y="345" type="line" smooth="yes"/>
      <point x="347.6" y="345"/>
      <point x="430.4" y="424"/>
    </contour>
    <contour>
      <point x="202.6" y="24.4" type="curve" smooth="yes"/>
      <point x="202.6" y="45.2"/>
      <point x="219.6" y="61.8"/>
      <point x="240" y="61.8" type="curve" smooth="yes"/>
      <point x="260.4" y="61.8"/>
      <point x="277.4" y="45.2"/>
      <point x="277.4" y="24.4" type="curve" smooth="yes"/>
      <point x="277.4" y="3.6"/>
      <point x="260.4" y="-13"/>
      <point x="240" y="-13" type="curve" smooth="yes"/>
      <point x="219.6" y="-13"/>
      <point x="202.6" y="3.6"/>
    </contour>
  </outline>
</glyph>
<glyph name="E" format="1">
  <advance width="534"/>
  <unicode hex="0045"/>
  <outline>
    <contour>
      <point x="113" y="0" type="line"/>
      <point x="113" y="52" type="line"/>
      <point x="460" y="52" type="line"/>
      <point x="460" y="0" type="line"/>
    </contour>
    <contour>
      <point x="113" y="648" type="line"/>
      <point x="113" y="700" type="line"/>
      <point x="460" y="700" type="line"/>
      <point x="460" y="648" type="line"/>
    </contour>
    <contour>
      <point x="113" y="357.6" type="line"/>
      <point x="113" y="409.6" type="line"/>
      <point x="440" y="409.6" type="line"/>
      <point x="440" y="357.6" type="line"/>
    </contour>
    <contour>
      <point x="84" y="700" type="line"/>
      <point x="139.4" y="700" type="line"/>
      <point x="139.4" y="0" type="line"/>
      <point x="84" y="0" type="line"/>
    </contour>
  </outline>
</glyph>
<glyph name="F" format="1">
  <advance width="480"/>
  <unicode hex="0046"/>
  <outline>
    <contour>
      <point x="113.4" y="647.6" type="line"/>
      <point x="113.4" y="700" type="line"/>
      <point x="420" y="700" type="line"/>
      <point x="420" y="647.6" type="line"/>
    </contour>
    <contour>
      <point x="113.4" y="353.2" type="line"/>
      <point x="113.4" y="405.2" type="line"/>
      <point x="410" y="405.2" type="line"/>
      <point x="410" y="353.2" type="line"/>
    </contour>
    <contour>
      <point x="84" y="700" type="line"/>
      <point x="139.4" y="700" type="line"/>
      <point x="139.4" y="0" type="line"/>
      <point x="84" y="0" type="line"/>
    </contour>
  </outline>
</glyph>
<glyph name="J" format="1">
  <advance width="222"/>
  <unicode hex="004A"/>
  <outline>
    <contour>
      <point x="-91" y="-125.6" type="line"/>
      <point x="-73" y="-149"/>
      <point x="-39.6" y="-167.6"/>
      <point x="0.4" y="-167.6" type="curve" smooth="yes"/>
      <point x="54" y="-167.6"/>
      <point x="86.4" y="-136"/>
      <point x="86.4" y="-50" type="curve" smooth="yes"/>
      <point x="86.4" y="700" type="line"/>
      <point x="138.8" y="700" type="line"/>
      <point x="138.8" y="-60" type="line" smooth="yes"/>
      <point x="138.8" y="-169"/>
      <point x="91.8" y="-220"/>
      <point x="-2.2" y="-220" type="curve" smooth="yes"/>
      <point x="-55.2" y="-220"/>
      <point x="-105.2" y="-188"/>
      <point x="-120.2" y="-168" type="curve"/>
    </contour>
  </outline>
</glyph>
<glyph name="N" format="1">
  <advance width="755"/>
  <unicode hex="004E"/>
  <outline>
    <contour>
      <point x="615.6" y="700" type="line"/>
      <point x="671" y="700" type="line"/>
      <point x="671" y="-27" type="line"/>
      <point x="139.4" y="583.8" type="line"/>
      <point x="139.4" y="0" type="line"/>
      <point x="84" y="0" type="line"/>
      <point x="84" y="727" type="line"/>
      <point x="615.6" y="114.2" type="line"/>
    </contour>
  </outline>
</glyph>
<glyph name="U" format="1">
  <advance width="606"/>
  <unicode hex="0055"/>
  <outline>
    <contour>
      <point x="79" y="700" type="line"/>
      <point x="134" y="700" type="line"/>
      <point x="134" y="226" type="line" smooth="yes"/>
      <point x="134" y="114"/>
      <point x="195" y="42"/>
      <point x="303" y="42" type="curve" smooth="yes"/>
      <point x="411" y="42"/>
      <point x="472" y="114"/>
      <point x="472" y="226" type="curve" smooth="yes"/>
      <point x="472" y="700" type="line"/>
      <point x="527" y="700" type="line"/>
      <point x="527" y="226" type="line" smooth="yes"/>
      <point x="527" y="87"/>
      <point x="444" y="-10"/>
      <point x="303" y="-10" type="curve" smooth="yes"/>
      <point x="162" y="-10"/>
      <point x="79" y="87"/>
      <point x="79" y="226" type="curve" smooth="yes"/>
    </contour>
  </outline>
</glyph>
<glyph name="W" format="1">
  <advance width="974"/>
  <unicode hex="0057"/>
  <outline>
    <contour>
      <point x="296" y="58" type="line"/>
      <point x="273" y="-27" type="line"/>
      <point x="14" y="700" type="line"/>
      <point x="75" y="700" type="line"/>
    </contour>
    <contour>
      <point x="701" y="-27" type="line"/>
      <point x="678" y="58" type="line"/>
      <point x="899" y="700" type="line"/>
      <point x="960" y="700" type="line"/>
    </contour>
    <contour>
      <point x="273" y="-27" type="line"/>
      <point x="251" y="56" type="line"/>
      <point x="487" y="727" type="line"/>
      <point x="723" y="56" type="line"/>
      <point x="701" y="-27" type="line"/>
      <point x="487" y="576" type="line"/>
    </contour>
  </outline>
</glyph>
<glyph name="Y" format="1">
  <advance width="539"/>
  <unicode hex="0059"/>
  <outline>
    <contour>
      <point x="468.2" y="700" type="line"/>
      <point x="530.4" y="700" type="line"/>
      <point x="295.4" y="288" type="line"/>
      <point x="295.4" y="0" type="line"/>
      <point x="240" y="0" type="line"/>
      <point x="240" y="287" type="line"/>
      <point x="9" y="700" type="line"/>
      <point x="71.2" y="700" type="line"/>
      <point x="267.2" y="338" type="line"/>
    </contour>
  </outline>
</glyph>
<glyph name="bracketleft" format="1">
  <advance width="284"/>
  <unicode hex="005B"/>
  <outline>
    <contour>
      <point x="151.8" y="730.6" type="line"/>
      <point x="151.8" y="-170.6" type="line"/>
      <point x="264" y="-170.6" type="line"/>
      <point x="264" y="-220" type="line"/>
      <point x="100" y="-220" type="line"/>
      <point x="100" y="780" type="line"/>
      <point x="264" y="780" type="line"/>
      <point x="264" y="730.6" type="line"/>
    </contour>
  </outline>
</glyph>
<glyph name="backslash" format="1">
  <advance width="483"/>
  <unicode hex="005C"/>
  <outline>
    <contour>
      <point x="15" y="700" type="line"/>
      <point x="71.2" y="700" type="line"/>
      <point x="468" y="0" type="line"/>
      <point x="411.8" y="0" type="line"/>
    </contour>
  </outline>
</glyph>
<glyph name="grave" format="1">
  <advance width="366"/>
  <unicode hex="0060"/>
  <outline>
    <contour>
      <point x="85" y="672.8" type="line"/>
      <point x="133.2" y="700" type="line"/>
      <point x="291.2" y="540" type="line"/>
      <point x="262.2" y="520" type="line"/>
    </contour>
  </outline>
</glyph>
<glyph name="f" format="1">
  <advance width="282"/>
  <unicode hex="0066"/>
  <outline>
    <contour>
      <point x="44" y="460" type="line"/>
      <point x="260" y="460" type="line"/>
      <point x="260" y="411" type="line"/>
      <point x="44" y="411" type="line"/>
    </contour>
    <contour>
      <point x="269.6" y="703.6" type="line"/>
      <point x="254.8" y="725.4"/>
      <point x="233.4" y="737.2"/>
      <point x="209" y="737.2" type="curve" smooth="yes"/>
      <point x="159" y="737.2"/>
      <point x="141" y="694"/>
      <point x="141" y="632" type="curve" smooth="yes"/>
      <point x="141" y="0" type="line"/>
      <point x="89" y="0" type="line"/>
      <point x="89" y="638" type="line" smooth="yes"/>
      <point x="89" y="731"/>
      <point x="128" y="789.2"/>
      <point x="212" y="789.2" type="curve" smooth="yes"/>
      <point x="255" y="789.2"/>
      <point x="283.8" y="766"/>
      <point x="298.8" y="746" type="curve"/>
    </contour>
  </outline>
</glyph>
<glyph name="g" format="1">
  <advance width="558"/>
  <unicode hex="0067"/>
  <outline>
    <contour>
      <point x="50" y="-30" type="curve"/>
      <point x="103" y="-30" type="line"/>
      <point x="103" y="-116"/>
      <point x="167" y="-181"/>
      <point x="264" y="-181" type="curve" smooth="yes"/>
      <point x="349" y="-181"/>
      <point x="432" y="-122"/>
      <point x="432" y="10" type="curve" smooth="yes"/>
      <point x="432" y="460" type="line"/>
      <point x="484" y="460" type="line"/>
      <point x="484" y="10" type="line" smooth="yes"/>
      <point x="484" y="-149"/>
      <point x="379" y="-230"/>
      <point x="264" y="-230" type="curve" smooth="yes"/>
      <point x="137" y="-230"/>
      <point x="50" y="-149"/>
    </contour>
    <contour>
      <point x="39" y="230" type="curve" smooth="yes"/>
      <point x="39" y="378"/>
      <point x="138" y="470"/>
      <point x="261" y="470" type="curve" smooth="yes"/>
      <point x="379" y="470"/>
      <point x="456" y="367"/>
      <point x="456" y="230" type="curve" smooth="yes"/>
      <point x="456" y="93"/>
      <point x="379" y="-10"/>
      <point x="261" y="-10" type="curve" smooth="yes"/>
      <point x="138" y="-10"/>
      <point x="39" y="82"/>
    </contour>
    <contour>
      <point x="92" y="230" type="curve" smooth="yes"/>
      <point x="92" y="110"/>
      <point x="171" y="39"/>
      <point x="268" y="39" type="curve" smooth="yes"/>
      <point x="354" y="39"/>
      <point x="432" y="120"/>
      <point x="432" y="232" type="curve" smooth="yes"/>
      <point x="432" y="338"/>
      <point x="354" y="421"/>
      <point x="268" y="421" type="curve" smooth="yes"/>
      <point x="171" y="421"/>
      <point x="92" y="350"/>
    </contour>
  </outline>
</glyph>
<glyph name="o" format="1">
  <advance width="550"/>
  <unicode hex="006F"/>
  <outline>
    <contour>
      <point x="39" y="230" type="curve" smooth="yes"/>
      <point x="39" y="369"/>
      <point x="141.2" y="470"/>
      <point x="275" y="470" type="curve" smooth="yes"/>
      <point x="408.8" y="470"/>
      <point x="511" y="369"/>
      <point x="511" y="230" type="curve" smooth="yes"/>
      <point x="511" y="91"/>
      <point x="408.8" y="-10"/>
      <point x="275" y="-10" type="curve" smooth="yes"/>
      <point x="141.2" y="-10"/>
      <point x="39" y="91"/>
    </contour>
    <contour>
      <point x="91.6" y="230" type="curve" smooth="yes"/>
      <point x="91.6" y="118.8"/>
      <point x="171" y="39"/>
      <point x="275" y="39" type="curve" smooth="yes"/>
      <point x="379" y="39"/>
      <point x="458.4" y="118.8"/>
      <point x="458.4" y="230" type="curve" smooth="yes"/>
      <point x="458.4" y="341.2"/>
      <point x="379" y="421"/>
      <point x="275" y="421" type="curve" smooth="yes"/>
      <point x="171" y="421"/>
      <point x="91.6" y="341.2"/>
    </contour>
  </outline>
</glyph>
<glyph name="s" format="1">
  <advance width="403"/>
  <unicode hex="0073"/>
  <outline>
    <contour>
      <point x="72.8" y="156" type="line"/>
      <point x="97.6" y="94"/>
      <point x="143" y="39"/>
      <point x="208.2" y="39" type="curve" smooth="yes"/>
      <point x="262.8" y="39"/>
      <point x="302.8" y="67.2"/>
      <point x="302.8" y="119.4" type="curve" smooth="yes"/>
      <point x="302.8" y="174.6"/>
      <point x="249.4" y="198.4"/>
      <point x="190.4" y="219" type="curve" smooth="yes"/>
      <point x="123.4" y="242.4"/>
      <point x="59.2" y="264.2"/>
      <point x="59.2" y="351.2" type="curve" smooth="yes"/>
      <point x="59.2" y="431.2"/>
      <point x="127.4" y="469.2"/>
      <point x="200.6" y="469.2" type="curve" smooth="yes"/>
      <point x="276.4" y="469.2"/>
      <point x="329.8" y="426.2"/>
      <point x="353.8" y="375.2" type="curve"/>
      <point x="311.4" y="349.4" type="line"/>
      <point x="291.4" y="387.2"/>
      <point x="252.2" y="421.4"/>
      <point x="201.2" y="421.4" type="curve" smooth="yes"/>
      <point x="151.2" y="421.4"/>
      <point x="110" y="400.6"/>
      <point x="110" y="353" type="curve" smooth="yes"/>
      <point x="110" y="294.2"/>
      <point x="170.2" y="278.6"/>
      <point x="228.8" y="258" type="curve" smooth="yes"/>
      <point x="294.2" y="234.2"/>
      <point x="356.6" y="199.8"/>
      <point x="356.6" y="124.8" type="curve" smooth="yes"/>
      <point x="356.6" y="33.8"/>
      <point x="293.2" y="-10"/>
      <point x="208.2" y="-10" type="curve" smooth="yes"/>
      <point x="115.2" y="-10"/>
      <point x="57" y="56.4"/>
      <point x="31" y="131.4" type="curve"/>
    </contour>
  </outline>
</glyph>
<glyph name="y" format="1">
  <advance width="434"/>
  <unicode hex="0079"/>
  <outline>
    <contour>
      <point x="430" y="460" type="line"/>
      <point x="130" y="-220" type="line"/>
      <point x="71.6" y="-220" type="line"/>
      <point x="189.6" y="47" type="line"/>
      <point x="4" y="460" type="line"/>
      <point x="65.8" y="460" type="line"/>
      <point x="233" y="68" type="line"/>
      <point x="208.8" y="70.4" type="line"/>
      <point x="371.6" y="460" type="line"/>
    </contour>
  </outline>
</glyph>
<glyph name="braceleft" format="1">
  <advance width="299"/>
  <unicode hex="007B"/>
  <outline>
    <contour>
      <point x="166" y="652" type="curve" smooth="yes"/>
      <point x="166" y="466" type="line" smooth="yes"/>
      <point x="166" y="377"/>
      <point x="148" y="283"/>
      <point x="71" y="283" type="curve"/>
      <point x="71" y="297" type="line"/>
      <point x="148" y="297"/>
      <point x="166" y="203"/>
      <point x="166" y="114" type="curve" smooth="yes"/>
      <point x="166" y="-72" type="line" smooth="yes"/>
      <point x="166" y="-126"/>
      <point x="184" y="-154"/>
      <point x="228" y="-154" type="curve" smooth="yes"/>
      <point x="257" y="-154" type="line"/>
      <point x="257" y="-200" type="line"/>
      <point x="213" y="-200" type="line" smooth="yes"/>
      <point x="157" y="-200"/>
      <point x="114" y="-159"/>
      <point x="114" y="-60" type="curve" smooth="yes"/>
      <point x="114" y="150" type="line" smooth="yes"/>
      <point x="114" y="226"/>
      <point x="92" y="260"/>
      <point x="62" y="270" type="curve"/>
      <point x="62" y="310" type="line"/>
      <point x="92" y="320"/>
      <point x="114" y="354"/>
      <point x="114" y="430" type="curve" smooth="yes"/>
      <point x="114" y="640" type="line" smooth="yes"/>
      <point x="114" y="739"/>
      <point x="157" y="780"/>
      <point x="213" y="780" type="curve" smooth="yes"/>
      <point x="257" y="780" type="line"/>
      <point x="257" y="734" type="line"/>
      <point x="228" y="734" type="line" smooth="yes"/>
      <point x="184" y="734"/>
      <point x="166" y="706"/>
    </contour>
  </outline>
</glyph>
<glyph name="brokenbar" format="1">
  <advance width="248"/>
  <unicode hex="00A6"/>
  <outline>
    <contour>
      <point x="100" y="695" type="line"/>
      <point x="148" y="695" type="line"/>
      <point x="148" y="455" type="line"/>
      <point x="100" y="455" type="line"/>
    </contour>
    <contour>
      <point x="148" y="245" type="line"/>
      <point x="148" y="5" type="line"/>
      <point x="100" y="5" type="line"/>
      <point x="100" y="245" type="line"/>
    </contour>
  </outline>
</glyph>
<glyph name="section" format="1">
  <advance width="404"/>
  <unicode hex="00A7"/>
  <outline>
    <contour>
      <point x="329" y="594" type="line"/>
      <point x="309" y="636"/>
      <point x="255" y="660"/>
      <point x="207" y="660" type="curve" smooth="yes"/>
      <point x="159" y="660"/>
      <point x="111" y="640"/>
      <point x="111" y="593" type="curve" smooth="yes"/>
      <point x="111" y="544"/>
      <point x="189" y="518"/>
      <point x="240" y="497" type="curve" smooth="yes"/>
      <point x="305" y="470"/>
      <point x="374" y="433"/>
      <point x="374" y="366" type="curve" smooth="yes"/>
      <point x="374" y="275"/>
      <point x="307" y="240"/>
      <point x="208" y="240" type="curve"/>
      <point x="208" y="261" type="line"/>
      <point x="274" y="267"/>
      <point x="320" y="310"/>
      <point x="320" y="362" type="curve" smooth="yes"/>
      <point x="320" y="416"/>
      <point x="254" y="442"/>
      <point x="201" y="463" type="curve" smooth="yes"/>
      <point x="138" y="488"/>
      <point x="59" y="516"/>
      <point x="59" y="593" type="curve" smooth="yes"/>
      <point x="59" y="669"/>
      <point x="132" y="710"/>
      <point x="206" y="710" type="curve" smooth="yes"/>
      <point x="279" y="710"/>
      <point x="352" y="671"/>
      <point x="370" y="620" type="curve"/>
    </contour>
    <contour>
      <point x="73" y="147" type="line"/>
      <point x="85" y="87"/>
      <point x="146" y="39"/>
      <point x="215" y="39" type="curve" smooth="yes"/>
      <point x="269" y="39"/>
      <point x="320" y="58"/>
      <point x="320" y="114" type="curve" smooth="yes"/>
      <point x="320" y="176"/>
      <point x="255" y="199"/>
      <point x="198" y="222" type="curve" smooth="yes"/>
      <point x="135" y="248"/>
      <point x="59" y="286"/>
      <point x="59" y="359" type="curve" smooth="yes"/>
      <point x="59" y="427"/>
      <point x="112" y="480"/>
      <point x="226" y="480" type="curve"/>
      <point x="226" y="464" type="line"/>
      <point x="150" y="448"/>
      <point x="111" y="410"/>
      <point x="111" y="365" type="curve" smooth="yes"/>
      <point x="111" y="300"/>
      <point x="186" y="277"/>
      <point x="237" y="256" type="curve" smooth="yes"/>
      <point x="302" y="229"/>
      <point x="374" y="193"/>
      <point x="374" y="118" type="curve" smooth="yes"/>
      <point x="374" y="27"/>
      <point x="303" y="-10"/>
      <point x="212" y="-10" type="curve" smooth="yes"/>
      <point x="127" y="-10"/>
      <point x="44" y="48"/>
      <point x="30" y="123" type="curve"/>
    </contour>
  </outline>
</glyph>
<glyph name="uni00B3" format="1">
  <advance width="310"/>
  <unicode hex="00B3"/>
  <outline>
    <contour>
      <point x="141" y="491" type="curve"/>
      <point x="141" y="513" type="line"/>
      <point x="195" y="513"/>
      <point x="242" y="547"/>
      <point x="242" y="596" type="curve" smooth="yes"/>
      <point x="242" y="640"/>
      <point x="214" y="676"/>
      <point x="162" y="676" type="curve" smooth="yes"/>
      <point x="113" y="676"/>
      <point x="77" y="643"/>
      <point x="77" y="596" type="curve"/>
      <point x="45" y="596" type="line"/>
      <point x="45" y="661"/>
      <point x="93" y="706"/>
      <point x="162" y="706" type="curve" smooth="yes"/>
      <point x="234" y="706"/>
      <point x="275" y="653"/>
      <point x="275" y="596" type="curve" smooth="yes"/>
      <point x="275" y="535"/>
      <point x="215" y="491"/>
    </contour>
    <contour>
      <point x="159" y="274" type="curve" smooth="yes"/>
      <point x="78" y="274"/>
      <point x="27" y="326"/>
      <point x="27" y="391" type="curve"/>
      <point x="61" y="391" type="line"/>
      <point x="61" y="341"/>
      <point x="99" y="305"/>
      <point x="159" y="305" type="curve" smooth="yes"/>
      <point x="217" y="305"/>
      <point x="254" y="340"/>
      <point x="254" y="392" type="curve" smooth="yes"/>
      <point x="254" y="453"/>
      <point x="195" y="483"/>
      <point x="141" y="483" type="curve"/>
      <point x="141" y="505" type="line"/>
      <point x="215" y="505"/>
      <point x="287" y="470"/>
      <point x="287" y="389" type="curve" smooth="yes"/>
      <point x="287" y="320"/>
      <point x="234" y="274"/>
    </contour>
  </outline>
</glyph>
<glyph name="uni00B9" format="1">
  <advance width="470"/>
  <unicode hex="00B9"/>
  <outline>
    <contour>
      <point x="148" y="633" type="line"/>
      <point x="148" y="668" type="line"/>
      <point x="278" y="699" type="line"/>
      <point x="278" y="274" type="line"/>
      <point x="245" y="274" type="line"/>
      <point x="245" y="659" type="line"/>
    </contour>
  </outline>
</glyph>
<glyph name="questiondown" format="1">
  <advance width="551"/>
  <unicode hex="00BF"/>
  <outline>
    <contour>
      <point x="120.6" y="192" type="curve" smooth="yes"/>
      <point x="120.6" y="100"/>
      <point x="182" y="39"/>
      <point x="284" y="39" type="curve" smooth="yes"/>
      <point x="361" y="39"/>
      <point x="410.2" y="76.4"/>
      <point x="446.4" y="134" type="curve"/>
      <point x="489" y="107" type="line"/>
      <point x="443" y="37"/>
      <point x="389" y="-10"/>
      <point x="278" y="-10" type="curve" smooth="yes"/>
      <point x="153" y="-10"/>
      <point x="68" y="77"/>
      <point x="68" y="192" type="curve" smooth="yes"/>
      <point x="68" y="300.2"/>
      <point x="168.6" y="386.8"/>
      <point x="286.4" y="391.2" type="curve"/>
      <point x="290.2" y="530" type="line"/>
      <point x="329.4" y="530" type="line"/>
      <point x="343.4" y="355" type="line"/>
      <point x="327.8" y="355" type="line"/>
      <point x="203.8" y="355"/>
      <point x="120.6" y="276"/>
    </contour>
    <contour>
      <point x="348.4" y="675.6" type="curve" smooth="yes"/>
      <point x="348.4" y="654.8"/>
      <point x="331.4" y="638.2"/>
      <point x="311" y="638.2" type="curve" smooth="yes"/>
      <point x="290.6" y="638.2"/>
      <point x="273.6" y="654.8"/>
      <point x="273.6" y="675.6" type="curve" smooth="yes"/>
      <point x="273.6" y="696.4"/>
      <point x="290.6" y="713"/>
      <point x="311" y="713" type="curve" smooth="yes"/>
      <point x="331.4" y="713"/>
      <point x="348.4" y="696.4"/>
    </contour>
  </outline>
</glyph>
<glyph name="Eacute" format="1">
  <advance width="534"/>
  <unicode hex="00C9"/>
  <outline>
    <contour>
      <point x="113" y="0" type="line"/>
      <point x="113" y="52" type="line"/>
      <point x="460" y="52" type="line"/>
      <point x="460" y="0" type="line"/>
    </contour>
    <contour>
      <point x="113" y="648" type="line"/>
      <point x="113" y="700" type="line"/>
      <point x="460" y="700" type="line"/>
      <point x="460" y="648" type="line"/>
    </contour>
    <contour>
      <point x="113" y="358" type="line"/>
      <point x="113" y="410" type="line"/>
      <point x="440" y="410" type="line"/>
      <point x="440" y="358" type="line"/>
    </contour>
    <contour>
      <point x="84" y="700" type="line"/>
      <point x="139" y="700" type="line"/>
      <point x="139" y="0" type="line"/>
      <point x="84" y="0" type="line"/>
    </contour>
    <contour>
      <point x="412" y="922" type="line"/>
      <point x="235" y="769" type="line"/>
      <point x="206" y="789" type="line"/>
      <point x="364" y="949" type="line"/>
    </contour>
  </outline>
</glyph>
<glyph name="iacute" format="1">
  <advance width="232"/>
  <unicode hex="00ED"/>
  <outline>
    <contour>
      <point x="90" y="460" type="line"/>
      <point x="142" y="460" type="line"/>
      <point x="142" y="0" type="line"/>
      <point x="90" y="0" type="line"/>
    </contour>
    <contour>
      <point x="274" y="695" type="line"/>
      <point x="97" y="542" type="line"/>
      <point x="68" y="562" type="line"/>
      <point x="226" y="722" type="line"/>
    </contour>
  </outline>
</glyph>
<glyph name="thorn" format="1">
  <advance width="558"/>
  <unicode hex="00FE"/>
  <outline>
    <contour>
      <point x="126" y="180" type="line"/>
      <point x="78" y="-220" type="line"/>
      <point x="74" y="380" type="line"/>
      <point x="122" y="780" type="line"/>
    </contour>
    <contour>
      <point x="519" y="230" type="curve" smooth="yes"/>
      <point x="519" y="82"/>
      <point x="420" y="-10"/>
      <point x="297" y="-10" type="curve" smooth="yes"/>
      <point x="179" y="-10"/>
      <point x="102" y="93"/>
      <point x="102" y="230" type="curve" smooth="yes"/>
      <point x="102" y="367"/>
      <point x="179" y="470"/>
      <point x="297" y="470" type="curve" smooth="yes"/>
      <point x="420" y="470"/>
      <point x="519" y="378"/>
    </contour>
    <contour>
      <point x="467" y="230" type="curve" smooth="yes"/>
      <point x="467" y="350"/>
      <point x="387" y="421"/>
      <point x="290" y="421" type="curve" smooth="yes"/>
      <point x="204" y="421"/>
      <point x="126" y="340"/>
      <point x="126" y="230" type="curve" smooth="yes"/>
      <point x="126" y="120"/>
      <point x="204" y="39"/>
      <point x="290" y="39" type="curve" smooth="yes"/>
      <point x="387" y="39"/>
      <point x="467" y="110"/>
    </contour>
  </outline>
</glyph>
<glyph name="Abreve" format="1">
  <advance width="636"/>
  <unicode hex="0102"/>
  <outline>
    <contour>
      <point x="139" y="235" type="line"/>
      <point x="157" y="287" type="line"/>
      <point x="481" y="287" type="line"/>
      <point x="499" y="235" type="line"/>
    </contour>
    <contour>
      <point x="318" y="600" type="line"/>
      <point x="182" y="269" type="line"/>
      <point x="176" y="257" type="line"/>
      <point x="71" y="0" type="line"/>
      <point x="9" y="0" type="line"/>
      <point x="318" y="727" type="line"/>
      <point x="627" y="0" type="line"/>
      <point x="565" y="0" type="line"/>
      <point x="461" y="253" type="line"/>
      <point x="456" y="266" type="line"/>
    </contour>
    <contour>
      <point x="160" y="931" type="curve"/>
      <point x="207" y="931" type="line"/>
      <point x="207" y="889"/>
      <point x="239" y="834"/>
      <point x="318" y="834" type="curve" smooth="yes"/>
      <point x="397" y="834"/>
      <point x="429" y="889"/>
      <point x="429" y="931" type="curve"/>
      <point x="476" y="931" type="line"/>
      <point x="476" y="862"/>
      <point x="423" y="791"/>
      <point x="318" y="791" type="curve" smooth="yes"/>
      <point x="213" y="791"/>
      <point x="160" y="862"/>
    </contour>
  </outline>
</glyph>
<glyph name="Hcircumflex" format="1">
  <advance width="687"/>
  <unicode hex="0124"/>
  <outline>
    <contour>
      <point x="113" y="355" type="line"/>
      <point x="113" y="407" type="line"/>
      <point x="585" y="407" type="line"/>
      <point x="585" y="355" type="line"/>
    </contour>
    <contour>
      <point x="548" y="700" type="line"/>
      <point x="604" y="700" type="line"/>
      <point x="604" y="0" type="line"/>
      <point x="548" y="0" type="line"/>
    </contour>
    <contour>
      <point x="84" y="700" type="line"/>
      <point x="139" y="700" type="line"/>
      <point x="139" y="0" type="line"/>
      <point x="84" y="0" type="line"/>
    </contour>
    <contour>
      <point x="344" y="880" type="line"/>
      <point x="217" y="769" type="line"/>
      <point x="184" y="796" type="line"/>
      <point x="344" y="936" type="line"/>
      <point x="504" y="796" type="line"/>
      <point x="471" y="769" type="line"/>
    </contour>
  </outline>
</glyph>
<glyph name="iogonek" format="1">
  <advance width="232"/>
  <unicode hex="012F"/>
  <outline>
    <contour>
      <point x="79" y="668" type="curve" smooth="yes"/>
      <point x="79" y="688"/>
      <point x="95" y="705"/>
      <point x="116" y="705" type="curve" smooth="yes"/>
      <point x="137" y="705"/>
      <point x="153" y="688"/>
      <point x="153" y="668" type="curve" smooth="yes"/>
      <point x="153" y="648"/>
      <point x="137" y="631"/>
      <point x="116" y="631" type="curve" smooth="yes"/>
      <point x="95" y="631"/>
      <point x="79" y="648"/>
    </contour>
    <contour>
      <point x="90" y="460" type="line"/>
      <point x="142" y="460" type="line"/>
      <point x="142" y="0" type="line"/>
      <point x="90" y="0" type="line"/>
    </contour>
    <contour>
      <point x="159" y="-157" type="curve"/>
      <point x="182" y="-190" type="line"/>
      <point x="167" y="-210"/>
      <point x="133" y="-230"/>
      <point x="90" y="-230" type="curve" smooth="yes"/>
      <point x="14" y="-230"/>
      <point x="-25" y="-193"/>
      <point x="-25" y="-138" type="curve"/>
      <point x="27" y="-126" type="line"/>
      <point x="27" y="-166"/>
      <point x="55" y="-184"/>
      <point x="93" y="-184" type="curve" smooth="yes"/>
      <point x="125" y="-184"/>
      <point x="145" y="-172"/>
    </contour>
    <contour>
      <point x="27" y="-126" type="curve"/>
      <point x="-25" y="-138" type="line"/>
      <point x="-25" y="-75"/>
      <point x="45" y="-27"/>
      <point x="115" y="9" type="curve"/>
      <point x="143" y="-10" type="line"/>
      <point x="85" y="-36"/>
      <point x="27" y="-81"/>
    </contour>
  </outline>
</glyph>
<glyph name="Jcircumflex" format="1">
  <advance width="222"/>
  <unicode hex="0134"/>
  <outline>
    <contour>
      <point x="-91" y="-126" type="line"/>
      <point x="-73" y="-149"/>
      <point x="-40" y="-168"/>
      <point x="0" y="-168" type="curve" smooth="yes"/>
      <point x="54" y="-168"/>
      <point x="86" y="-136"/>
      <point x="86" y="-50" type="curve" smooth="yes"/>
      <point x="86" y="700" type="line"/>
      <point x="139" y="700" type="line"/>
      <point x="139" y="-60" type="line" smooth="yes"/>
      <point x="139" y="-169"/>
      <point x="92" y="-220"/>
      <point x="-2" y="-220" type="curve" smooth="yes"/>
      <point x="-55" y="-220"/>
      <point x="-105" y="-188"/>
      <point x="-120" y="-168" type="curve"/>
    </contour>
    <contour>
      <point x="120" y="894" type="line"/>
      <point x="-7" y="783" type="line"/>
      <point x="-40" y="810" type="line"/>
      <point x="120" y="950" type="line"/>
      <point x="280" y="810" type="line"/>
      <point x="247" y="783" type="line"/>
    </contour>
  </outline>
</glyph>
<glyph name="kgreenlandic" format="1">
  <advance width="412"/>
  <unicode hex="0138"/>
  <outline>
    <contour>
      <point x="74" y="460" type="line"/>
      <point x="126" y="460" type="line"/>
      <point x="126" y="0" type="line"/>
      <point x="74" y="0" type="line"/>
    </contour>
    <contour>
      <point x="323" y="460" type="line"/>
      <point x="390" y="460" type="line"/>
      <point x="173" y="270" type="line"/>
      <point x="409" y="0" type="line"/>
      <point x="343" y="0" type="line"/>
      <point x="107" y="270" type="line"/>
    </contour>
  </outline>
</glyph>
<glyph name="Nacute" format="1">
  <advance width="731"/>
  <unicode hex="0143"/>
  <outline>
    <contour>
      <point x="75" y="634" type="line"/>
      <point x="68" y="727" type="line"/>
      <point x="648" y="64" type="line"/>
      <point x="655" y="-27" type="line"/>
    </contour>
    <contour>
      <point x="600" y="700" type="line"/>
      <point x="655" y="700" type="line"/>
      <point x="655" y="-27" type="line"/>
      <point x="600" y="52" type="line"/>
    </contour>
    <contour>
      <point x="68" y="727" type="line"/>
      <point x="123" y="646" type="line"/>
      <point x="123" y="0" type="line"/>
      <point x="68" y="0" type="line"/>
    </contour>
    <contour>
      <point x="500" y="914" type="line"/>
      <point x="323" y="761" type="line"/>
      <point x="294" y="781" type="line"/>
      <point x="452" y="941" type="line"/>
    </contour>
  </outline>
</glyph>
<glyph name="uni0145" format="1">
  <advance width="731"/>
  <unicode hex="0145"/>
  <outline>
    <contour>
      <point x="75" y="634" type="line"/>
      <point x="68" y="727" type="line"/>
      <point x="648" y="64" type="line"/>
      <point x="655" y="-27" type="line"/>
    </contour>
    <contour>
      <point x="600" y="700" type="line"/>
      <point x="655" y="700" type="line"/>
      <point x="655" y="-27" type="line"/>
      <point x="600" y="52" type="line"/>
    </contour>
    <contour>
      <point x="68" y="727" type="line"/>
      <point x="123" y="646" type="line"/>
      <point x="123" y="0" type="line"/>
      <point x="68" y="0" type="line"/>
    </contour>
    <contour>
      <point x="376" y="-39" type="line"/>
      <point x="429" y="-59" type="line"/>
      <point x="319" y="-309" type="line"/>
      <point x="281" y="-296" type="line"/>
    </contour>
  </outline>
</glyph>
<glyph name="rcaron" format="1">
  <advance width="321"/>
  <unicode hex="0159"/>
  <outline>
    <contour>
      <point x="131" y="460" type="line"/>
      <point x="131" y="0" type="line"/>
      <point x="79" y="0" type="line"/>
      <point x="79" y="460" type="line"/>
    </contour>
    <contour>
      <point x="284" y="399" type="line"/>
      <point x="264" y="413"/>
      <point x="248" y="421"/>
      <point x="224" y="421" type="curve" smooth="yes"/>
      <point x="156" y="421"/>
      <point x="131" y="358"/>
      <point x="131" y="280" type="curve"/>
      <point x="107" y="280" type="line"/>
      <point x="107" y="389"/>
      <point x="163" y="470"/>
      <point x="236" y="470" type="curve" smooth="yes"/>
      <point x="265" y="470"/>
      <point x="292" y="462"/>
      <point x="313" y="442" type="curve"/>
    </contour>
    <contour>
      <point x="196" y="586" type="line"/>
      <point x="322" y="697" type="line"/>
      <point x="356" y="670" type="line"/>
      <point x="196" y="530" type="line"/>
      <point x="36" y="670" type="line"/>
      <point x="69" y="697" type="line"/>
    </contour>
  </outline>
</glyph>
<glyph name="Scedilla" format="1">
  <advance width="524"/>
  <unicode hex="015E"/>
  <outline>
    <contour>
      <point x="87" y="214" type="line"/>
      <point x="123" y="121"/>
      <point x="178" y="43"/>
      <point x="279" y="43" type="curve" smooth="yes"/>
      <point x="379" y="43"/>
      <point x="422" y="99"/>
      <point x="422" y="180" type="curve" smooth="yes"/>
      <point x="422" y="275"/>
      <point x="335" y="317"/>
      <point x="257" y="346" type="curve" smooth="yes"/>
      <point x="183" y="373"/>
      <point x="77" y="426"/>
      <point x="77" y="541" type="curve" smooth="yes"/>
      <point x="77" y="643"/>
      <point x="162" y="709"/>
      <point x="268" y="709" type="curve" smooth="yes"/>
      <point x="381" y="709"/>
      <point x="448" y="627"/>
      <point x="472" y="556" type="curve"/>
      <point x="427" y="528" type="line"/>
      <point x="401" y="590"/>
      <point x="358" y="656"/>
      <point x="269" y="656" type="curve" smooth="yes"/>
      <point x="191" y="656"/>
      <point x="135" y="608"/>
      <point x="135" y="537" type="curve" smooth="yes"/>
      <point x="135" y="456"/>
      <point x="220" y="417"/>
      <point x="305" y="385" type="curve" smooth="yes"/>
      <point x="382" y="357"/>
      <point x="479" y="303"/>
      <point x="479" y="184" type="curve" smooth="yes"/>
      <point x="479" y="73"/>
      <point x="415" y="-9"/>
      <point x="276" y="-9" type="curve" smooth="yes"/>
      <point x="157" y="-9"/>
      <point x="78" y="79"/>
      <point x="40" y="187" type="curve"/>
    </contour>
    <contour>
      <point x="280" y="35" type="line"/>
      <point x="320" y="35" type="line"/>
      <point x="260" y="-64" type="line"/>
      <point x="206" y="-101" type="line"/>
    </contour>
    <contour>
      <point x="366" y="-127" type="curve"/>
      <point x="328" y="-127" type="line"/>
      <point x="328" y="-95"/>
      <point x="305" y="-80"/>
      <point x="273" y="-80" type="curve" smooth="yes"/>
      <point x="255" y="-80"/>
      <point x="229" y="-85"/>
      <point x="206" y="-101" type="curve"/>
      <point x="234" y="-72" type="line"/>
      <point x="260" y="-56"/>
      <point x="273" y="-53"/>
      <point x="294" y="-53" type="curve" smooth="yes"/>
      <point x="327" y="-53"/>
      <point x="366" y="-78"/>
    </contour>
    <contour>
      <point x="366" y="-127" type="line"/>
      <point x="366" y="-188"/>
      <point x="315" y="-221"/>
      <point x="260" y="-221" type="curve" smooth="yes"/>
      <point x="223" y="-221"/>
      <point x="198" y="-211"/>
      <point x="170" y="-183" type="curve"/>
      <point x="193" y="-157" type="line"/>
      <point x="216" y="-176"/>
      <point x="231" y="-185"/>
      <point x="260" y="-185" type="curve" smooth="yes"/>
      <point x="299" y="-185"/>
      <point x="328" y="-164"/>
      <point x="328" y="-127" type="curve"/>
    </contour>
  </outline>
</glyph>
<glyph name="tcaron" format="1">
  <advance width="322"/>
  <unicode hex="0165"/>
  <outline>
    <contour>
      <point x="9" y="460" type="line"/>
      <point x="211" y="460" type="line"/>
      <point x="211" y="411" type="line"/>
      <point x="9" y="411" type="line"/>
    </contour>
    <contour>
      <point x="84" y="620" type="line"/>
      <point x="136" y="620" type="line"/>
      <point x="136" y="0" type="line"/>
      <point x="84" y="0" type="line"/>
    </contour>
    <contour>
      <point x="286.6" y="796" type="line"/>
      <point x="339" y="776" type="line"/>
      <point x="229" y="526" type="line"/>
      <point x="191.8" y="539.4" type="line"/>
    </contour>
  </outline>
</glyph>
<glyph name="Ubreve" format="1">
  <advance width="606"/>
  <unicode hex="016C"/>
  <outline>
    <contour>
      <point x="79" y="700" type="line"/>
      <point x="134.4" y="700" type="line"/>
      <point x="134.4" y="226" type="line" smooth="yes"/>
      <point x="134.4" y="114"/>
      <point x="195" y="42.4"/>
      <point x="303" y="42.4" type="curve" smooth="yes"/>
      <point x="411" y="42.4"/>
      <point x="471.6" y="114"/>
      <point x="471.6" y="226" type="curve" smooth="yes"/>
      <point x="471.6" y="700" type="line"/>
      <point x="527" y="700" type="line"/>
      <point x="527" y="226" type="line" smooth="yes"/>
      <point x="527" y="87"/>
      <point x="444" y="-10"/>
      <point x="303" y="-10" type="curve" smooth="yes"/>
      <point x="162" y="-10"/>
      <point x="79" y="87"/>
      <point x="79" y="226" type="curve" smooth="yes"/>
    </contour>
    <contour>
      <point x="145" y="909.2" type="curve"/>
      <point x="191.6" y="909.2" type="line"/>
      <point x="191.6" y="867.2"/>
      <point x="224.2" y="812.2"/>
      <point x="303" y="812.2" type="curve" smooth="yes"/>
      <point x="381.8" y="812.2"/>
      <point x="414.4" y="867.2"/>
      <point x="414.4" y="909.2" type="curve"/>
      <point x="461" y="909.2" type="line"/>
      <point x="461" y="840.2"/>
      <point x="408" y="769.2"/>
      <point x="303" y="769.2" type="curve" smooth="yes"/>
      <point x="198" y="769.2"/>
      <point x="145" y="840.2"/>
    </contour>
  </outline>
</glyph>
<glyph name="Uring" format="1">
  <advance width="606"/>
  <unicode hex="016E"/>
  <outline>
    <contour>
      <point x="79" y="700" type="line"/>
      <point x="134.4" y="700" type="line"/>
      <point x="134.4" y="226" type="line" smooth="yes"/>
      <point x="134.4" y="114"/>
      <point x="195" y="42.4"/>
      <point x="303" y="42.4" type="curve" smooth="yes"/>
      <point x="411" y="42.4"/>
      <point x="471.6" y="114"/>
      <point x="471.6" y="226" type="curve" smooth="yes"/>
      <point x="471.6" y="700" type="line"/>
      <point x="527" y="700" type="line"/>
      <point x="527" y="226" type="line" smooth="yes"/>
      <point x="527" y="87"/>
      <point x="444" y="-10"/>
      <point x="303" y="-10" type="curve" smooth="yes"/>
      <point x="162" y="-10"/>
      <point x="79" y="87"/>
      <point x="79" y="226" type="curve" smooth="yes"/>
    </contour>
    <contour>
      <point x="201" y="869.2" type="curve" smooth="yes"/>
      <point x="201" y="929.2"/>
      <point x="251" y="969.2"/>
      <point x="303" y="969.2" type="curve" smooth="yes"/>
      <point x="355" y="969.2"/>
      <point x="405" y="929.2"/>
      <point x="405" y="869.2" type="curve" smooth="yes"/>
      <point x="405" y="809.2"/>
      <point x="355" y="769.2"/>
      <point x="303" y="769.2" type="curve" smooth="yes"/>
      <point x="251" y="769.2"/>
      <point x="201" y="809.2"/>
    </contour>
    <contour>
      <point x="235.6" y="869.2" type="curve" smooth="yes"/>
      <point x="235.6" y="828.2"/>
      <point x="268.8" y="801.4"/>
      <point x="303" y="801.4" type="curve" smooth="yes"/>
      <point x="337.2" y="801.4"/>
      <point x="370.4" y="828.2"/>
      <point x="370.4" y="869.2" type="curve" smooth="yes"/>
      <point x="370.4" y="910.2"/>
      <point x="337.2" y="937"/>
      <point x="303" y="937" type="curve" smooth="yes"/>
      <point x="268.8" y="937"/>
      <point x="235.6" y="910.2"/>
    </contour>
  </outline>
</glyph>
<glyph name="Wcircumflex" format="1">
  <advance width="974"/>
  <unicode hex="0174"/>
  <outline>
    <contour>
      <point x="698" y="115.4" type="line"/>
      <point x="898.6" y="700" type="line"/>
      <point x="960" y="700" type="line"/>
      <point x="701" y="-27" type="line"/>
      <point x="487" y="576.2" type="line"/>
      <point x="273" y="-27" type="line"/>
      <point x="14" y="700" type="line"/>
      <point x="75.4" y="700" type="line"/>
      <point x="276" y="115.4" type="line"/>
      <point x="487" y="727" type="line"/>
    </contour>
    <contour>
      <point x="487" y="898" type="line"/>
      <point x="359.8" y="787" type="line"/>
      <point x="327" y="813.8" type="line"/>
      <point x="487" y="953.8" type="line"/>
      <point x="647" y="813.8" type="line"/>
      <point x="614.2" y="787" type="line"/>
    </contour>
  </outline>
</glyph>
<glyph name="Ycircumflex" format="1">
  <advance width="539"/>
  <unicode hex="0176"/>
  <outline>
    <contour>
      <point x="468.2" y="700" type="line"/>
      <point x="530.4" y="700" type="line"/>
      <point x="295.4" y="288" type="line"/>
      <point x="295.4" y="0" type="line"/>
      <point x="240" y="0" type="line"/>
      <point x="240" y="287" type="line"/>
      <point x="9" y="700" type="line"/>
      <point x="71.2" y="700" type="line"/>
      <point x="267.2" y="338" type="line"/>
    </contour>
    <contour>
      <point x="269.7" y="880.2" type="line"/>
      <point x="142.5" y="769.2" type="line"/>
      <point x="109.7" y="796" type="line"/>
      <point x="269.7" y="936" type="line"/>
      <point x="429.7" y="796" type="line"/>
      <point x="396.9" y="769.2" type="line"/>
    </contour>
  </outline>
</glyph>
<glyph name="Zdotaccent" format="1">
  <advance width="541"/>
  <unicode hex="017B"/>
  <outline>
    <contour>
      <point x="37" y="647.6" type="line"/>
      <point x="37" y="700" type="line"/>
      <point x="523" y="700" type="line"/>
      <point x="111" y="52.4" type="line"/>
      <point x="507" y="52.4" type="line"/>
      <point x="507" y="0" type="line"/>
      <point x="17" y="0" type="line"/>
      <point x="429" y="647.6" type="line"/>
    </contour>
    <contour>
      <point x="242.6" y="806.6" type="curve" smooth="yes"/>
      <point x="242.6" y="827.4"/>
      <point x="259.6" y="844"/>
      <point x="280" y="844" type="curve" smooth="yes"/>
      <point x="300.4" y="844"/>
      <point x="317.4" y="827.4"/>
      <point x="317.4" y="806.6" type="curve" smooth="yes"/>
      <point x="317.4" y="785.8"/>
      <point x="300.4" y="769.2"/>
      <point x="280" y="769.2" type="curve" smooth="yes"/>
      <point x="259.6" y="769.2"/>
      <point x="242.6" y="785.8"/>
    </contour>
  </outline>
</glyph>
<glyph name="zdotaccent" format="1">
  <advance width="448"/>
  <unicode hex="017C"/>
  <outline>
    <contour>
      <point x="331.6" y="411" type="line"/>
      <point x="43" y="411" type="line"/>
      <point x="43" y="460" type="line"/>
      <point x="427" y="460" type="line"/>
      <point x="112.4" y="49" type="line"/>
      <point x="419" y="49" type="line"/>
      <point x="419" y="0" type="line"/>
      <point x="17" y="0" type="line"/>
    </contour>
    <contour>
      <point x="197.6" y="597.4" type="curve" smooth="yes"/>
      <point x="197.6" y="618.2"/>
      <point x="214.6" y="634.8"/>
      <point x="235" y="634.8" type="curve" smooth="yes"/>
      <point x="255.4" y="634.8"/>
      <point x="272.4" y="618.2"/>
      <point x="272.4" y="597.4" type="curve" smooth="yes"/>
      <point x="272.4" y="576.6"/>
      <point x="255.4" y="560"/>
      <point x="235" y="560" type="curve" smooth="yes"/>
      <point x="214.6" y="560"/>
      <point x="197.6" y="576.6"/>
    </contour>
  </outline>
</glyph>
<glyph name="zcaron" format="1">
  <advance width="448"/>
  <unicode hex="017E"/>
  <outline>
    <contour>
      <point x="71" y="49" type="line"/>
      <point x="419" y="49" type="line"/>
      <point x="419" y="0" type="line"/>
      <point x="17" y="0" type="line"/>
    </contour>
    <contour>
      <point x="43" y="460" type="line"/>
      <point x="427" y="460" type="line"/>
      <point x="379" y="411" type="line"/>
      <point x="43" y="411" type="line"/>
    </contour>
    <contour>
      <point x="368" y="460" type="line"/>
      <point x="427" y="460" type="line"/>
      <point x="76" y="0" type="line"/>
      <point x="17" y="0" type="line"/>
    </contour>
    <contour>
      <point x="245" y="586" type="line"/>
      <point x="372" y="697" type="line"/>
      <point x="405" y="670" type="line"/>
      <point x="245" y="530" type="line"/>
      <point x="85" y="670" type="line"/>
      <point x="118" y="697" type="line"/>
    </contour>
  </outline>
</glyph>
<glyph name="uni040D" format="1">
  <advance width="755"/>
  <unicode hex="040D"/>
  <outline>
    <contour>
      <point x="668" y="649.8" type="line"/>
      <point x="84" y="-35" type="line"/>
      <point x="87" y="50.2" type="line"/>
      <point x="671" y="735" type="line"/>
    </contour>
    <contour>
      <point x="139" y="700" type="line"/>
      <point x="139" y="39.8" type="line"/>
      <point x="84" y="-35" type="line"/>
      <point x="84" y="700" type="line"/>
    </contour>
    <contour>
      <point x="671" y="735" type="line"/>
      <point x="671" y="0" type="line"/>
      <point x="616" y="0" type="line"/>
      <point x="616" y="661" type="line"/>
    </contour>
    <contour>
      <point x="229" y="907.8" type="line"/>
      <point x="277.2" y="935" type="line"/>
      <point x="435.2" y="775" type="line"/>
      <point x="406.2" y="755" type="line"/>
    </contour>
  </outline>
</glyph>
<glyph name="uni040E" format="1">
  <advance width="531"/>
  <unicode hex="040E"/>
  <outline>
    <contour>
      <point x="531" y="700" type="line"/>
      <point x="202" y="0" type="line"/>
      <point x="141" y="0" type="line"/>
      <point x="237" y="213.8" type="line"/>
      <point x="0" y="700" type="line"/>
      <point x="67" y="700" type="line"/>
      <point x="287.8" y="230" type="line"/>
      <point x="254.4" y="232.4" type="line"/>
      <point x="470" y="700" type="line"/>
    </contour>
    <contour>
      <point x="109" y="909.2" type="curve"/>
      <point x="155.6" y="909.2" type="line"/>
      <point x="155.6" y="867.2"/>
      <point x="188.2" y="812.2"/>
      <point x="267" y="812.2" type="curve" smooth="yes"/>
      <point x="345.8" y="812.2"/>
      <point x="378.4" y="867.2"/>
      <point x="378.4" y="909.2" type="curve"/>
      <point x="425" y="909.2" type="line"/>
      <point x="425" y="840.2"/>
      <point x="372" y="769.2"/>
      <point x="267" y="769.2" type="curve" smooth="yes"/>
      <point x="162" y="769.2"/>
      <point x="109" y="840.2"/>
    </contour>
  </outline>
</glyph>
<glyph name="uni0414" format="1">
  <advance width="795"/>
  <unicode hex="0414"/>
  <outline>
    <contour>
      <point x="395" y="607.2" type="line"/>
      <point x="168.8" y="22" type="line"/>
      <point x="110" y="22" type="line"/>
      <point x="395" y="735" type="line"/>
      <point x="680" y="22" type="line"/>
      <point x="621.2" y="22" type="line"/>
    </contour>
    <contour>
      <point x="701" y="0" type="line"/>
      <point x="89" y="0" type="line"/>
      <point x="89" y="-110" type="line"/>
      <point x="40" y="-110" type="line"/>
      <point x="40" y="52" type="line"/>
      <point x="750" y="52" type="line"/>
      <point x="750" y="-110" type="line"/>
      <point x="701" y="-110" type="line"/>
    </contour>
  </outline>
</glyph>
<glyph name="uni0416" format="1">
  <advance width="793"/>
  <unicode hex="0416"/>
  <outline>
    <contour>
      <point x="89" y="700" type="line"/>
      <point x="384.4" y="370" type="line"/>
      <point x="74" y="0" type="line"/>
      <point x="5" y="0" type="line"/>
      <point x="317.4" y="371.2" type="line"/>
      <point x="20" y="700" type="line"/>
    </contour>
    <contour>
      <point x="374" y="700" type="line"/>
      <point x="429" y="700" type="line"/>
      <point x="429" y="0" type="line"/>
      <point x="374" y="0" type="line"/>
    </contour>
    <contour>
      <point x="704" y="700" type="line"/>
      <point x="773" y="700" type="line"/>
      <point x="479.6" y="371.2" type="line"/>
      <point x="788" y="0" type="line"/>
      <point x="719" y="0" type="line"/>
      <point x="418.6" y="370" type="line"/>
    </contour>
  </outline>
</glyph>
<glyph name="uni0417" format="1">
  <advance width="606"/>
  <unicode hex="0417"/>
  <outline>
    <contour>
      <point x="283" y="351" type="curve"/>
      <point x="283" y="386.8" type="line"/>
      <point x="405.8" y="386.8"/>
      <point x="484.8" y="444.2"/>
      <point x="484.8" y="522.2" type="curve" smooth="yes"/>
      <point x="484.8" y="600.2"/>
      <point x="423.6" y="659.8"/>
      <point x="317.6" y="659.8" type="curve" smooth="yes"/>
      <point x="213.8" y="659.8"/>
      <point x="142.6" y="603"/>
      <point x="142.6" y="526" type="curve"/>
      <point x="90" y="526" type="line"/>
      <point x="90" y="635"/>
      <point x="182" y="710"/>
      <point x="317" y="710" type="curve" smooth="yes"/>
      <point x="457" y="710"/>
      <point x="541" y="623"/>
      <point x="541" y="524" type="curve" smooth="yes"/>
      <point x="541" y="425"/>
      <point x="438" y="351"/>
    </contour>
    <contour>
      <point x="313" y="-10" type="curve" smooth="yes"/>
      <point x="148" y="-10"/>
      <point x="60" y="76"/>
      <point x="60" y="185" type="curve"/>
      <point x="115.6" y="185" type="line"/>
      <point x="119.8" y="103"/>
      <point x="185" y="42"/>
      <point x="313" y="42" type="curve" smooth="yes"/>
      <point x="439" y="42"/>
      <point x="504.8" y="101.8"/>
      <point x="504.8" y="191" type="curve" smooth="yes"/>
      <point x="504.8" y="296.6"/>
      <point x="405.8" y="337.8"/>
      <point x="283" y="337.8" type="curve"/>
      <point x="283" y="374" type="line"/>
      <point x="438" y="374"/>
      <point x="561" y="324"/>
      <point x="561" y="185" type="curve" smooth="yes"/>
      <point x="561" y="66"/>
      <point x="468" y="-10"/>
    </contour>
  </outline>
</glyph>
<glyph name="uni0419" format="1">
  <advance width="755"/>
  <unicode hex="0419"/>
  <outline>
    <contour>
      <point x="668" y="649.8" type="line"/>
      <point x="84" y="-35" type="line"/>
      <point x="87" y="50.2" type="line"/>
      <point x="671" y="735" type="line"/>
    </contour>
    <contour>
      <point x="139" y="700" type="line"/>
      <point x="139" y="39.8" type="line"/>
      <point x="84" y="-35" type="line"/>
      <point x="84" y="700" type="line"/>
    </contour>
    <contour>
      <point x="671" y="735" type="line"/>
      <point x="671" y="0" type="line"/>
      <point x="616" y="0" type="line"/>
      <point x="616" y="661" type="line"/>
    </contour>
    <contour>
      <point x="240.2" y="903" type="curve"/>
      <point x="286.8" y="903" type="line"/>
      <point x="286.8" y="861"/>
      <point x="319.4" y="806"/>
      <point x="398.2" y="806" type="curve" smooth="yes"/>
      <point x="477" y="806"/>
      <point x="509.6" y="861"/>
      <point x="509.6" y="903" type="curve"/>
      <point x="556.2" y="903" type="line"/>
      <point x="556.2" y="834"/>
      <point x="503.2" y="763"/>
      <point x="398.2" y="763" type="curve" smooth="yes"/>
      <point x="293.2" y="763"/>
      <point x="240.2" y="834"/>
    </contour>
  </outline>
</glyph>
<glyph name="uni041D" format="1">
  <advance width="715"/>
  <unicode hex="041D"/>
  <outline>
    <contour>
      <point x="113.4" y="354.8" type="line"/>
      <point x="113.4" y="406.8" type="line"/>
      <point x="585.4" y="406.8" type="line"/>
      <point x="585.4" y="354.8" type="line"/>
    </contour>
    <contour>
      <point x="548.4" y="700" type="line"/>
      <point x="603.8" y="700" type="line"/>
      <point x="603.8" y="0" type="line"/>
      <point x="548.4" y="0" type="line"/>
    </contour>
    <contour>
      <point x="84" y="700" type="line"/>
      <point x="139.4" y="700" type="line"/>
      <point x="139.4" y="0" type="line"/>
      <point x="84" y="0" type="line"/>
    </contour>
  </outline>
</glyph>
<glyph name="uni0420" format="1">
  <advance width="548"/>
  <unicode hex="0420"/>
  <outline>
    <contour>
      <point x="84" y="700" type="line"/>
      <point x="139.4" y="700" type="line"/>
      <point x="139.4" y="0" type="line"/>
      <point x="84" y="0" type="line"/>
    </contour>
    <contour>
      <point x="115" y="648" type="line"/>
      <point x="115" y="700" type="line"/>
      <point x="248" y="700" type="line" smooth="yes"/>
      <point x="379" y="700"/>
      <point x="476.8" y="621.8"/>
      <point x="476.8" y="492.8" type="curve" smooth="yes"/>
      <point x="476.8" y="363.8"/>
      <point x="379" y="285.6"/>
      <point x="248" y="285.6" type="curve" smooth="yes"/>
      <point x="115" y="285.6" type="line"/>
      <point x="115" y="337.6" type="line"/>
      <point x="248" y="337.6" type="line" smooth="yes"/>
      <point x="350" y="337.6"/>
      <point x="421.4" y="392"/>
      <point x="421.4" y="492.8" type="curve" smooth="yes"/>
      <point x="421.4" y="593.6"/>
      <point x="350" y="648"/>
      <point x="248" y="648" type="curve" smooth="yes"/>
    </contour>
  </outline>
</glyph>
<glyph name="uni0421" format="1">
  <advance width="685"/>
  <unicode hex="0421"/>
  <outline>
    <contour>
      <point x="102.8" y="350" type="curve" smooth="yes"/>
      <point x="102.8" y="172.2"/>
      <point x="228.4" y="46.6"/>
      <point x="386" y="46.6" type="curve" smooth="yes"/>
      <point x="485" y="46.6"/>
      <point x="558.4" y="82.6"/>
      <point x="611" y="142.6" type="curve"/>
      <point x="611" y="69" type="line"/>
      <point x="552" y="17"/>
      <point x="488" y="-9.2"/>
      <point x="386" y="-9.2" type="curve" smooth="yes"/>
      <point x="192" y="-9.2"/>
      <point x="44" y="141"/>
      <point x="44" y="350" type="curve" smooth="yes"/>
      <point x="44" y="559"/>
      <point x="192" y="709.2"/>
      <point x="386" y="709.2" type="curve" smooth="yes"/>
      <point x="488" y="709.2"/>
      <point x="552" y="683"/>
      <point x="611" y="631" type="curve"/>
      <point x="611" y="557.8" type="line"/>
      <point x="559.2" y="617.4"/>
      <point x="483" y="653.4"/>
      <point x="386" y="653.4" type="curve" smooth="yes"/>
      <point x="228.8" y="653.4"/>
      <point x="102.8" y="529"/>
    </contour>
  </outline>
</glyph>
<glyph name="uni0422" format="1">
  <advance width="465"/>
  <unicode hex="0422"/>
  <outline>
    <contour>
      <point x="14" y="647.6" type="line"/>
      <point x="14" y="700" type="line"/>
      <point x="437.4" y="700" type="line"/>
      <point x="437.4" y="647.6" type="line"/>
      <point x="253.4" y="647.6" type="line"/>
      <point x="253.4" y="0" type="line"/>
      <point x="198" y="0" type="line"/>
      <point x="198" y="647.6" type="line"/>
    </contour>
  </outline>
</glyph>
<glyph name="uni0423" format="1">
  <advance width="531"/>
  <unicode hex="0423"/>
  <outline>
    <contour>
      <point x="531" y="700" type="line"/>
      <point x="202" y="0" type="line"/>
      <point x="141" y="0" type="line"/>
      <point x="237" y="213.8" type="line"/>
      <point x="0" y="700" type="line"/>
      <point x="67" y="700" type="line"/>
      <point x="287.8" y="230" type="line"/>
      <point x="254.4" y="232.4" type="line"/>
      <point x="470" y="700" type="line"/>
    </contour>
  </outline>
</glyph>
<glyph name="uni0426" format="1">
  <advance width="730"/>
  <unicode hex="0426"/>
  <outline>
    <contour>
      <point x="135" y="52" type="line"/>
      <point x="550" y="52" type="line"/>
      <point x="550" y="700" type="line"/>
      <point x="605" y="700" type="line"/>
      <point x="605" y="52" type="line"/>
      <point x="690" y="52" type="line"/>
      <point x="690" y="-110" type="line"/>
      <point x="641" y="-110" type="line"/>
      <point x="641" y="0" type="line"/>
      <point x="80" y="0" type="line"/>
      <point x="80" y="700" type="line"/>
      <point x="135" y="700" type="line"/>
    </contour>
  </outline>
</glyph>
<glyph name="uni0427" format="1">
  <advance width="585"/>
  <unicode hex="0427"/>
  <outline>
    <contour>
      <point x="290" y="280" type="line"/>
      <point x="290" y="329" type="line"/>
      <point x="487" y="329" type="line"/>
      <point x="487" y="280" type="line"/>
    </contour>
    <contour>
      <point x="450" y="700" type="line"/>
      <point x="505" y="700" type="line"/>
      <point x="505" y="0" type="line"/>
      <point x="450" y="0" type="line"/>
    </contour>
    <contour>
      <point x="132" y="700" type="line"/>
      <point x="132" y="518" type="line" smooth="yes"/>
      <point x="132" y="412"/>
      <point x="186.4" y="329"/>
      <point x="290" y="329" type="curve"/>
      <point x="290" y="280" type="line"/>
      <point x="151" y="280"/>
      <point x="80" y="383"/>
      <point x="80" y="518" type="curve" smooth="yes"/>
      <point x="80" y="700" type="line"/>
    </contour>
  </outline>
</glyph>
<glyph name="uni0429" format="1">
  <advance width="1000"/>
  <unicode hex="0429"/>
  <outline>
    <contour>
      <point x="820" y="52" type="line"/>
      <point x="820" y="700" type="line"/>
      <point x="875" y="700" type="line"/>
      <point x="875" y="52" type="line"/>
      <point x="960" y="52" type="line"/>
      <point x="960" y="-110" type="line"/>
      <point x="911" y="-110" type="line"/>
      <point x="911" y="0" type="line"/>
      <point x="80" y="0" type="line"/>
      <point x="80" y="700" type="line"/>
      <point x="135" y="700" type="line"/>
      <point x="135" y="52" type="line"/>
      <point x="450" y="52" type="line"/>
      <point x="450" y="700" type="line"/>
      <point x="505" y="700" type="line"/>
      <point x="505" y="52" type="line"/>
    </contour>
  </outline>
</glyph>
<glyph name="uni042E" format="1">
  <advance width="1027"/>
  <unicode hex="042E"/>
  <outline>
    <contour>
      <point x="111" y="354" type="line"/>
      <point x="111" y="406" type="line"/>
      <point x="331" y="406" type="line"/>
      <point x="331" y="354" type="line"/>
    </contour>
    <contour>
      <point x="80" y="700" type="line"/>
      <point x="135" y="700" type="line"/>
      <point x="135" y="0" type="line"/>
      <point x="80" y="0" type="line"/>
    </contour>
    <contour>
      <point x="346.4" y="350.8" type="curve" smooth="yes"/>
      <point x="346.4" y="175.6"/>
      <point x="467.6" y="46.2"/>
      <point x="635.8" y="46.2" type="curve" smooth="yes"/>
      <point x="804" y="46.2"/>
      <point x="925.2" y="175.6"/>
      <point x="925.2" y="350.8" type="curve" smooth="yes"/>
      <point x="925.2" y="526"/>
      <point x="804" y="654.6"/>
      <point x="635.8" y="654.6" type="curve" smooth="yes"/>
      <point x="467.6" y="654.6"/>
      <point x="346.4" y="526"/>
    </contour>
    <contour>
      <point x="288" y="350.8" type="curve" smooth="yes"/>
      <point x="288" y="556.8"/>
      <point x="435.8" y="710"/>
      <point x="635.8" y="710" type="curve" smooth="yes"/>
      <point x="835.8" y="710"/>
      <point x="983.6" y="556.8"/>
      <point x="983.6" y="350.8" type="curve" smooth="yes"/>
      <point x="983.6" y="144.8"/>
      <point x="835.8" y="-9.6"/>
      <point x="635.8" y="-9.6" type="curve" smooth="yes"/>
      <point x="435.8" y="-9.6"/>
      <point x="288" y="144.8"/>
    </contour>
  </outline>
</glyph>
<glyph name="uni042F" format="1">
  <advance width="523"/>
  <unicode hex="042F"/>
  <outline>
    <contour>
      <point x="320.6" y="333.8" type="line"/>
      <point x="88.6" y="0" type="line"/>
      <point x="20" y="0" type="line"/>
      <point x="258.8" y="333.8" type="line"/>
    </contour>
    <contour>
      <point x="439.2" y="700" type="line"/>
      <point x="439.2" y="0" type="line"/>
      <point x="383.8" y="0" type="line"/>
      <point x="383.8" y="700" type="line"/>
    </contour>
    <contour>
      <point x="410.2" y="650.6" type="line"/>
      <point x="279.2" y="650.6" type="line" smooth="yes"/>
      <point x="172.8" y="650.6"/>
      <point x="97.4" y="597.6"/>
      <point x="97.4" y="496.8" type="curve" smooth="yes"/>
      <point x="97.4" y="396"/>
      <point x="172.4" y="342.6"/>
      <point x="279.2" y="342.6" type="curve" smooth="yes"/>
      <point x="410.2" y="342.6" type="line"/>
      <point x="410.2" y="293.6" type="line"/>
      <point x="279.2" y="293.6" type="line" smooth="yes"/>
      <point x="144.2" y="293.6"/>
      <point x="42" y="367.8"/>
      <point x="42" y="496.8" type="curve" smooth="yes"/>
      <point x="42" y="625.8"/>
      <point x="144.2" y="700"/>
      <point x="279.2" y="700" type="curve" smooth="yes"/>
      <point x="410.2" y="700" type="line"/>
    </contour>
  </outline>
</glyph>
<glyph name="uni0431" format="1">
  <advance width="546"/>
  <unicode hex="0431"/>
  <outline>
    <contour>
      <point x="273" y="421" type="curve"/>
      <point x="273" y="470" type="line"/>
      <point x="408" y="470"/>
      <point x="511" y="369"/>
      <point x="511" y="230" type="curve" smooth="yes"/>
      <point x="511" y="91"/>
      <point x="408" y="-10"/>
      <point x="273" y="-10" type="curve" smooth="yes"/>
      <point x="138" y="-10"/>
      <point x="35" y="91"/>
      <point x="35" y="290" type="curve"/>
      <point x="90.6" y="230" type="line"/>
      <point x="90.6" y="118"/>
      <point x="171" y="39"/>
      <point x="273" y="39" type="curve" smooth="yes"/>
      <point x="375" y="39"/>
      <point x="458.4" y="118"/>
      <point x="458.4" y="230" type="curve" smooth="yes"/>
      <point x="458.4" y="342"/>
      <point x="378.2" y="421"/>
    </contour>
    <contour>
      <point x="64.6" y="230" type="line"/>
      <point x="64.6" y="379"/>
      <point x="160.4" y="470"/>
      <point x="273" y="470" type="curve"/>
      <point x="273" y="421" type="line"/>
      <point x="191" y="421"/>
      <point x="90.6" y="352"/>
      <point x="90.6" y="230" type="curve"/>
    </contour>
    <contour>
      <point x="35" y="290" type="line"/>
      <point x="35" y="477"/>
      <point x="81.8791" y="600.856"/>
      <point x="242.8" y="656" type="curve" smooth="yes"/>
      <point x="333.624" y="687.123"/>
      <point x="374" y="732"/>
      <point x="384" y="780" type="curve"/>
      <point x="435.4" y="780" type="line"/>
      <point x="425.8" y="705.4"/>
      <point x="359.439" y="647.623"/>
      <point x="256" y="613" type="curve" smooth="yes"/>
      <point x="120.644" y="567.372"/>
      <point x="81" y="457.83"/>
      <point x="81" y="316" type="curve" smooth="yes"/>
      <point x="81" y="234.2" type="line"/>
    </contour>
  </outline>
</glyph>
<glyph name="uni0432" format="1">
  <advance width="436"/>
  <unicode hex="0432"/>
  <outline>
    <contour>
      <point x="105.2" y="236.4" type="line"/>
      <point x="238.2" y="236.4" type="line" smooth="yes"/>
      <point x="333.2" y="236.4"/>
      <point x="406.2" y="214"/>
      <point x="406.2" y="125" type="curve" smooth="yes"/>
      <point x="406.2" y="56"/>
      <point x="363.2" y="-7.71527e-15"/>
      <point x="258.2" y="0" type="curve" smooth="yes"/>
      <point x="105.2" y="0" type="line"/>
      <point x="105.2" y="46" type="line"/>
      <point x="246.2" y="46" type="line" smooth="yes"/>
      <point x="322.2" y="46"/>
      <point x="354.2" y="84.6"/>
      <point x="354.2" y="131" type="curve" smooth="yes"/>
      <point x="354.2" y="191"/>
      <point x="298.2" y="208.8"/>
      <point x="238.2" y="208.8" type="curve" smooth="yes"/>
      <point x="105.2" y="208.8" type="line"/>
    </contour>
    <contour>
      <point x="105.2" y="223.6" type="line"/>
      <point x="105.2" y="254.2" type="line"/>
      <point x="228.2" y="254.2" type="line" smooth="yes"/>
      <point x="276.2" y="254.2"/>
      <point x="334.2" y="276"/>
      <point x="334.2" y="332" type="curve" smooth="yes"/>
      <point x="334.2" y="384.8"/>
      <point x="289.8" y="414"/>
      <point x="228.2" y="414" type="curve" smooth="yes"/>
      <point x="105.2" y="414" type="line"/>
      <point x="105.2" y="460" type="line"/>
      <point x="228.2" y="460" type="line" smooth="yes"/>
      <point x="313.2" y="460"/>
      <point x="386.2" y="424"/>
      <point x="386.2" y="335" type="curve" smooth="yes"/>
      <point x="386.2" y="256"/>
      <point x="313.2" y="223.6"/>
      <point x="228.2" y="223.6" type="curve" smooth="yes"/>
    </contour>
    <contour>
      <point x="75" y="460" type="line"/>
      <point x="127" y="460" type="line"/>
      <point x="127" y="0" type="line"/>
      <point x="75" y="0" type="line"/>
    </contour>
  </outline>
</glyph>
<glyph name="uni043A" format="1">
  <advance width="440"/>
  <unicode hex="043A"/>
  <outline>
    <contour>
      <point x="74" y="460" type="line"/>
      <point x="126" y="460" type="line"/>
      <point x="126" y="0" type="line"/>
      <point x="74" y="0" type="line"/>
    </contour>
    <contour>
      <point x="323.2" y="460" type="line"/>
      <point x="389.6" y="460" type="line"/>
      <point x="172.8" y="270" type="line"/>
      <point x="408.8" y="0" type="line"/>
      <point x="343.2" y="0" type="line"/>
      <point x="107.2" y="270" type="line"/>
    </contour>
  </outline>
</glyph>
<glyph name="uni043D" format="1">
  <advance width="537"/>
  <unicode hex="043D"/>
  <outline>
    <contour>
      <point x="106" y="219" type="line"/>
      <point x="106" y="268" type="line"/>
      <point x="442" y="268" type="line"/>
      <point x="442" y="219" type="line"/>
    </contour>
    <contour>
      <point x="410" y="460" type="line"/>
      <point x="462" y="460" type="line"/>
      <point x="462" y="0" type="line"/>
      <point x="410" y="0" type="line"/>
    </contour>
    <contour>
      <point x="75" y="460" type="line"/>
      <point x="127" y="460" type="line"/>
      <point x="127" y="0" type="line"/>
      <point x="75" y="0" type="line"/>
    </contour>
  </outline>
</glyph>
<glyph name="uni0444" format="1">
  <advance width="586"/>
  <unicode hex="0444"/>
  <outline>
    <contour>
      <point x="267" y="560" type="line"/>
      <point x="319" y="560" type="line"/>
      <point x="319" y="-100" type="line"/>
      <point x="267" y="-100" type="line"/>
    </contour>
    <contour>
      <point x="35" y="230" type="curve" smooth="yes"/>
      <point x="35" y="369"/>
      <point x="138" y="470"/>
      <point x="293" y="470" type="curve" smooth="yes"/>
      <point x="448" y="470"/>
      <point x="551" y="369"/>
      <point x="551" y="230" type="curve" smooth="yes"/>
      <point x="551" y="91"/>
      <point x="448" y="-10"/>
      <point x="293" y="-10" type="curve" smooth="yes"/>
      <point x="138" y="-10"/>
      <point x="35" y="91"/>
    </contour>
    <contour>
      <point x="87.6" y="230" type="curve" smooth="yes"/>
      <point x="87.6" y="122"/>
      <point x="165" y="39"/>
      <point x="293" y="39" type="curve" smooth="yes"/>
      <point x="421" y="39"/>
      <point x="498.4" y="122"/>
      <point x="498.4" y="230" type="curve" smooth="yes"/>
      <point x="498.4" y="338"/>
      <point x="421" y="421"/>
      <point x="293" y="421" type="curve" smooth="yes"/>
      <point x="165" y="421"/>
      <point x="87.6" y="338"/>
    </contour>
  </outline>
</glyph>
<glyph name="uni044D" format="1">
  <advance width="482"/>
  <unicode hex="044D"/>
  <outline>
    <contour>
      <point x="137" y="254.2" type="line"/>
      <point x="438.6" y="254.2" type="line"/>
      <point x="396.6" y="205.8" type="line"/>
      <point x="137" y="205.8" type="line"/>
    </contour>
    <contour>
      <point x="395.4" y="230" type="curve" smooth="yes"/>
      <point x="395.4" y="341.2"/>
      <point x="316" y="421"/>
      <point x="212" y="421" type="curve" smooth="yes"/>
      <point x="138" y="421"/>
      <point x="75" y="382.8"/>
      <point x="54" y="346.2" type="curve"/>
      <point x="54" y="411.4" type="line"/>
      <point x="82" y="443.2"/>
      <point x="145" y="470"/>
      <point x="212" y="470" type="curve" smooth="yes"/>
      <point x="345.8" y="470"/>
      <point x="448" y="369"/>
      <point x="448" y="230" type="curve" smooth="yes"/>
      <point x="448" y="91"/>
      <point x="345.8" y="-10"/>
      <point x="212" y="-10" type="curve" smooth="yes"/>
      <point x="145" y="-10"/>
      <point x="82" y="15.8"/>
      <point x="54" y="48.6" type="curve"/>
      <point x="54" y="113.8" type="line"/>
      <point x="75" y="77.2"/>
      <point x="138" y="39"/>
      <point x="212" y="39" type="curve" smooth="yes"/>
      <point x="316" y="39"/>
      <point x="395.4" y="118.8"/>
    </contour>
  </outline>
</glyph>
<glyph name="uni0451" format="1">
  <advance width="515"/>
  <unicode hex="0451"/>
  <outline>
    <contour>
      <point x="72.4" y="217.2" type="line"/>
      <point x="72.4" y="262" type="line"/>
      <point x="414.2" y="262" type="line"/>
      <point x="413" y="356.4"/>
      <point x="349.4" y="424"/>
      <point x="259.8" y="424" type="curve" smooth="yes"/>
      <point x="171" y="424"/>
      <point x="92.8" y="358"/>
      <point x="92.8" y="248.8" type="curve"/>
      <point x="91.6" y="230.8" type="line"/>
      <point x="91.6" y="114.4"/>
      <point x="160.2" y="39"/>
      <point x="257.8" y="39" type="curve" smooth="yes"/>
      <point x="345.2" y="39"/>
      <point x="390" y="84.4"/>
      <point x="420.6" y="134" type="curve"/>
      <point x="462.8" y="107" type="line"/>
      <point x="423.2" y="45.8"/>
      <point x="373.2" y="-10"/>
      <point x="251.8" y="-10" type="curve" smooth="yes"/>
      <point x="130.8" y="-10"/>
      <point x="39" y="91.8"/>
      <point x="39" y="230.8" type="curve" smooth="yes"/>
      <point x="39" y="251.8"/>
      <point x="40.8" y="271.4"/>
      <point x="45.4" y="290.6" type="curve" smooth="yes"/>
      <point x="67.6" y="396.4"/>
      <point x="149.2" y="470"/>
      <point x="259.8" y="470" type="curve" smooth="yes"/>
      <point x="379.8" y="470"/>
      <point x="470.8" y="379"/>
      <point x="470.8" y="242" type="curve" smooth="yes"/>
      <point x="470.8" y="234"/>
      <point x="470.4" y="225.2"/>
      <point x="469.4" y="217.2" type="curve"/>
    </contour>
    <contour>
      <point x="316" y="596.6" type="curve" smooth="yes"/>
      <point x="316" y="617.4"/>
      <point x="333" y="634"/>
      <point x="353.4" y="634" type="curve" smooth="yes"/>
      <point x="373.8" y="634"/>
      <point x="390.8" y="617.4"/>
      <point x="390.8" y="596.6" type="curve" smooth="yes"/>
      <point x="390.8" y="575.8"/>
      <point x="373.8" y="559.2"/>
      <point x="353.4" y="559.2" type="curve" smooth="yes"/>
      <point x="333" y="559.2"/>
      <point x="316" y="575.8"/>
    </contour>
    <contour>
      <point x="116" y="596.6" type="curve" smooth="yes"/>
      <point x="116" y="617.4"/>
      <point x="133" y="634"/>
      <point x="153.4" y="634" type="curve" smooth="yes"/>
      <point x="173.8" y="634"/>
      <point x="190.8" y="617.4"/>
      <point x="190.8" y="596.6" type="curve" smooth="yes"/>
      <point x="190.8" y="575.8"/>
      <point x="173.8" y="559.2"/>
      <point x="153.4" y="559.2" type="curve" smooth="yes"/>
      <point x="133" y="559.2"/>
      <point x="116" y="575.8"/>
    </contour>
  </outline>
</glyph>
<glyph name="dagger" format="1">
  <advance width="542"/>
  <unicode hex="2020"/>
  <outline>
    <contour>
      <point x="90" y="540" type="line"/>
      <point x="452" y="540" type="line"/>
      <point x="452" y="491" type="line"/>
      <point x="90" y="491" type="line"/>
    </contour>
    <contour>
      <point x="245" y="700" type="line"/>
      <point x="297" y="700" type="line"/>
      <point x="297" y="-150" type="line"/>
      <point x="245" y="-150" type="line"/>
    </contour>
  </outline>
</glyph>
<glyph name="uni2088" format="1">
  <advance width="314"/>
  <unicode hex="2088"/>
  <outline>
    <contour>
      <point x="46" y="321" type="curve" smooth="yes"/>
      <point x="46" y="378"/>
      <point x="93" y="426"/>
      <point x="157" y="426" type="curve" smooth="yes"/>
      <point x="221" y="426"/>
      <point x="268" y="378"/>
      <point x="268" y="321" type="curve" smooth="yes"/>
      <point x="268" y="258"/>
      <point x="219" y="216"/>
      <point x="157" y="216" type="curve" smooth="yes"/>
      <point x="95" y="216"/>
      <point x="46" y="258"/>
    </contour>
    <contour>
      <point x="78" y="318" type="curve" smooth="yes"/>
      <point x="78" y="271"/>
      <point x="119" y="238"/>
      <point x="157" y="238" type="curve" smooth="yes"/>
      <point x="195" y="238"/>
      <point x="236" y="271"/>
      <point x="236" y="318" type="curve" smooth="yes"/>
      <point x="236" y="363"/>
      <point x="203" y="397"/>
      <point x="157" y="397" type="curve" smooth="yes"/>
      <point x="111" y="397"/>
      <point x="78" y="363"/>
    </contour>
    <contour>
      <point x="32" y="113" type="curve" smooth="yes"/>
      <point x="32" y="185"/>
      <point x="92" y="230"/>
      <point x="157" y="230" type="curve" smooth="yes"/>
      <point x="222" y="230"/>
      <point x="282" y="185"/>
      <point x="282" y="113" type="curve" smooth="yes"/>
      <point x="282" y="48"/>
      <point x="232" y="-6"/>
      <point x="157" y="-6" type="curve" smooth="yes"/>
      <point x="82" y="-6"/>
      <point x="32" y="48"/>
    </contour>
    <contour>
      <point x="64" y="116" type="curve" smooth="yes"/>
      <point x="64" y="59"/>
      <point x="104" y="23"/>
      <point x="157" y="23" type="curve" smooth="yes"/>
      <point x="210" y="23"/>
      <point x="250" y="59"/>
      <point x="250" y="116" type="curve" smooth="yes"/>
      <point x="250" y="169"/>
      <point x="204" y="208"/>
      <point x="157" y="208" type="curve" smooth="yes"/>
      <point x="110" y="208"/>
      <point x="64" y="169"/>
    </contour>
  </outline>
</glyph>
<glyph name="uni2089" format="1">
  <advance width="340"/>
  <unicode hex="2089"/>
  <outline>
    <contour>
      <point x="272" y="286" type="curve" smooth="yes"/>
      <point x="272" y="351"/>
      <point x="227" y="398"/>
      <point x="165" y="398" type="curve" smooth="yes"/>
      <point x="103" y="398"/>
      <point x="59" y="351"/>
      <point x="59" y="286" type="curve" smooth="yes"/>
      <point x="59" y="223"/>
      <point x="105" y="177"/>
      <point x="163" y="177" type="curve" smooth="yes"/>
      <point x="229" y="177"/>
      <point x="272" y="226"/>
    </contour>
    <contour>
      <point x="135" y="2" type="line"/>
      <point x="94" y="2" type="line"/>
      <point x="231" y="189" type="line"/>
      <point x="233" y="187" type="line"/>
      <point x="213" y="163"/>
      <point x="185" y="153"/>
      <point x="151" y="153" type="curve" smooth="yes"/>
      <point x="83" y="153"/>
      <point x="27" y="211"/>
      <point x="27" y="286" type="curve" smooth="yes"/>
      <point x="27" y="370"/>
      <point x="84" y="428"/>
      <point x="165" y="428" type="curve" smooth="yes"/>
      <point x="246" y="428"/>
      <point x="303" y="370"/>
      <point x="303" y="286" type="curve" smooth="yes"/>
      <point x="303" y="252"/>
      <point x="290" y="218"/>
      <point x="274" y="196" type="curve" smooth="yes"/>
    </contour>
  </outline>
</glyph>
<glyph name="uni2155" format="1">
  <advance width="744"/>
  <unicode hex="2155"/>
  <outline>
    <contour>
      <point x="589" y="700" type="line"/>
      <point x="633" y="700" type="line"/>
      <point x="92" y="0" type="line"/>
      <point x="48" y="0" type="line"/>
    </contour>
    <contour>
      <point x="26" y="633" type="line"/>
      <point x="26" y="668" type="line"/>
      <point x="156" y="699" type="line"/>
      <point x="156" y="274" type="line"/>
      <point x="123" y="274" type="line"/>
      <point x="123" y="659" type="line"/>
    </contour>
    <contour>
      <point x="702" y="136" type="curve" smooth="yes"/>
      <point x="702" y="41"/>
      <point x="638" y="-8"/>
      <point x="559" y="-8" type="curve" smooth="yes"/>
      <point x="487" y="-8"/>
      <point x="446" y="30"/>
      <point x="420" y="80" type="curve"/>
      <point x="448" y="99" type="line"/>
      <point x="468" y="56"/>
      <point x="506" y="23"/>
      <point x="559" y="23" type="curve" smooth="yes"/>
      <point x="624" y="23"/>
      <point x="667" y="65"/>
      <point x="667" y="136" type="curve" smooth="yes"/>
      <point x="667" y="200"/>
      <point x="624" y="243"/>
      <point x="566" y="243" type="curve" smooth="yes"/>
      <point x="521" y="243"/>
      <point x="490" y="229"/>
      <point x="452" y="194" type="curve"/>
      <point x="474" y="226" type="line"/>
      <point x="498" y="255"/>
      <point x="537" y="273"/>
      <point x="579" y="273" type="curve" smooth="yes"/>
      <point x="649" y="273"/>
      <point x="702" y="217"/>
    </contour>
    <contour>
      <point x="532" y="389" type="line"/>
      <point x="494" y="234" type="line"/>
      <point x="452" y="194" type="line"/>
      <point x="507" y="418" type="line"/>
      <point x="705" y="418" type="line"/>
      <point x="705" y="389" type="line"/>
    </contour>
  </outline>
</glyph>
<glyph name="uniFF16" format="1">
  <advance width="568"/>
  <unicode hex="FF16"/>
  <outline>
    <contour>
      <point x="107" y="226" type="curve" smooth="yes"/>
      <point x="107" y="118"/>
      <point x="180" y="40"/>
      <point x="284" y="40" type="curve" smooth="yes"/>
      <point x="388" y="40"/>
      <point x="461" y="118"/>
      <point x="461" y="226" type="curve" smooth="yes"/>
      <point x="461" y="330"/>
      <point x="384" y="408"/>
      <point x="288" y="408" type="curve" smooth="yes"/>
      <point x="178" y="408"/>
      <point x="107" y="326"/>
    </contour>
    <contour>
      <point x="334" y="700" type="line"/>
      <point x="403" y="700" type="line"/>
      <point x="175" y="389" type="line"/>
      <point x="171" y="392" type="line"/>
      <point x="204" y="433"/>
      <point x="250" y="449"/>
      <point x="307" y="449" type="curve" smooth="yes"/>
      <point x="421" y="449"/>
      <point x="514" y="351"/>
      <point x="514" y="226" type="curve" smooth="yes"/>
      <point x="514" y="86"/>
      <point x="419" y="-10"/>
      <point x="284" y="-10" type="curve" smooth="yes"/>
      <point x="149" y="-10"/>
      <point x="54" y="86"/>
      <point x="54" y="226" type="curve" smooth="yes"/>
      <point x="54" y="283"/>
      <point x="76" y="340"/>
      <point x="103" y="377" type="curve" smooth="yes"/>
    </contour>
  </outline>
</glyph>
<glyph name="adieresis.alt" format="1">
  <advance width="558"/>
  <outline>
    <contour>
      <point x="435" y="460" type="line"/>
      <point x="484" y="460" type="line"/>
      <point x="484" y="0" type="line"/>
      <point x="435" y="0" type="line"/>
    </contour>
    <contour>
      <point x="39" y="230" type="curve" smooth="yes"/>
      <point x="39" y="378"/>
      <point x="138" y="470"/>
      <point x="261" y="470" type="curve" smooth="yes"/>
      <point x="379" y="470"/>
      <point x="456" y="367"/>
      <point x="456" y="230" type="curve" smooth="yes"/>
      <point x="456" y="93"/>
      <point x="379" y="-10"/>
      <point x="261" y="-10" type="curve" smooth="yes"/>
      <point x="138" y="-10"/>
      <point x="39" y="82"/>
    </contour>
    <contour>
      <point x="92" y="230" type="curve" smooth="yes"/>
      <point x="92" y="110"/>
      <point x="171" y="39"/>
      <point x="268" y="39" type="curve" smooth="yes"/>
      <point x="354" y="39"/>
      <point x="432" y="120"/>
      <point x="432" y="230" type="curve" smooth="yes"/>
      <point x="432" y="340"/>
      <point x="354" y="421"/>
      <point x="268" y="421" type="curve" smooth="yes"/>
      <point x="171" y="421"/>
      <point x="92" y="350"/>
    </contour>
    <contour>
      <point x="340" y="587" type="curve" smooth="yes"/>
      <point x="340" y="608"/>
      <point x="357" y="625"/>
      <point x="377" y="625" type="curve" smooth="yes"/>
      <point x="397" y="625"/>
      <point x="414" y="608"/>
      <point x="414" y="587" type="curve" smooth="yes"/>
      <point x="414" y="566"/>
      <point x="397" y="550"/>
      <point x="377" y="550" type="curve" smooth="yes"/>
      <point x="357" y="550"/>
      <point x="340" y="566"/>
    </contour>
    <contour>
      <point x="140" y="587" type="curve" smooth="yes"/>
      <point x="140" y="608"/>
      <point x="157" y="625"/>
      <point x="177" y="625" type="curve" smooth="yes"/>
      <point x="197" y="625"/>
      <point x="214" y="608"/>
      <point x="214" y="587" type="curve" smooth="yes"/>
      <point x="214" y="566"/>
      <point x="197" y="550"/>
      <point x="177" y="550" type="curve" smooth="yes"/>
      <point x="157" y="550"/>
      <point x="140" y="566"/>
    </contour>
  </outline>
</glyph>
<glyph name="aring.alt" format="1">
  <advance width="558"/>
  <outline>
    <contour>
      <point x="435.4" y="460" type="line"/>
      <point x="484.4" y="460" type="line"/>
      <point x="484.4" y="0" type="line"/>
      <point x="435.4" y="0" type="line"/>
    </contour>
    <contour>
      <point x="39" y="230" type="curve" smooth="yes"/>
      <point x="39" y="378.2"/>
      <point x="138" y="470"/>
      <point x="261" y="470" type="curve" smooth="yes"/>
      <point x="379.2" y="470"/>
      <point x="456" y="367"/>
      <point x="456" y="230" type="curve" smooth="yes"/>
      <point x="456" y="93"/>
      <point x="379.2" y="-10"/>
      <point x="261" y="-10" type="curve" smooth="yes"/>
      <point x="138" y="-10"/>
      <point x="39" y="81.8"/>
    </contour>
    <contour>
      <point x="91.6" y="230" type="curve" smooth="yes"/>
      <point x="91.6" y="110"/>
      <point x="170.8" y="39"/>
      <point x="268.2" y="39" type="curve" smooth="yes"/>
      <point x="353.8" y="39"/>
      <point x="432.4" y="120"/>
      <point x="432.4" y="230" type="curve" smooth="yes"/>
      <point x="432.4" y="340"/>
      <point x="353.8" y="421"/>
      <point x="268.2" y="421" type="curve" smooth="yes"/>
      <point x="170.8" y="421"/>
      <point x="91.6" y="350"/>
    </contour>
    <contour>
      <point x="171" y="630" type="curve" smooth="yes"/>
      <point x="171" y="690"/>
      <point x="221" y="730"/>
      <point x="273" y="730" type="curve" smooth="yes"/>
      <point x="325" y="730"/>
      <point x="375" y="690"/>
      <point x="375" y="630" type="curve" smooth="yes"/>
      <point x="375" y="570"/>
      <point x="325" y="530"/>
      <point x="273" y="530" type="curve" smooth="yes"/>
      <point x="221" y="530"/>
      <point x="171" y="570"/>
    </contour>
    <contour>
      <point x="205.6" y="630" type="curve" smooth="yes"/>
      <point x="205.6" y="589"/>
      <point x="238.8" y="562.2"/>
      <point x="273" y="562.2" type="curve" smooth="yes"/>
      <point x="307.2" y="562.2"/>
      <point x="340.4" y="589"/>
      <point x="340.4" y="630" type="curve" smooth="yes"/>
      <point x="340.4" y="671"/>
      <point x="307.2" y="697.8"/>
      <point x="273" y="697.8" type="curve" smooth="yes"/>
      <point x="238.8" y="697.8"/>
      <point x="205.6" y="671"/>
    </contour>
  </outline>
</glyph>
<glyph name="atilde.alt" format="1">
  <advance width="558"/>
  <outline>
    <contour>
      <point x="435.4" y="460" type="line"/>
      <point x="484.4" y="460" type="line"/>
      <point x="484.4" y="0" type="line"/>
      <point x="435.4" y="0" type="line"/>
    </contour>
    <contour>
      <point x="39" y="230" type="curve" smooth="yes"/>
      <point x="39" y="378.2"/>
      <point x="138" y="470"/>
      <point x="261" y="470" type="curve" smooth="yes"/>
      <point x="379.2" y="470"/>
      <point x="456" y="367"/>
      <point x="456" y="230" type="curve" smooth="yes"/>
      <point x="456" y="93"/>
      <point x="379.2" y="-10"/>
      <point x="261" y="-10" type="curve" smooth="yes"/>
      <point x="138" y="-10"/>
      <point x="39" y="81.8"/>
    </contour>
    <contour>
      <point x="91.6" y="230" type="curve" smooth="yes"/>
      <point x="91.6" y="110"/>
      <point x="170.8" y="39"/>
      <point x="268.2" y="39" type="curve" smooth="yes"/>
      <point x="353.8" y="39"/>
      <point x="432.4" y="120"/>
      <point x="432.4" y="230" type="curve" smooth="yes"/>
      <point x="432.4" y="340"/>
      <point x="353.8" y="421"/>
      <point x="268.2" y="421" type="curve" smooth="yes"/>
      <point x="170.8" y="421"/>
      <point x="91.6" y="350"/>
    </contour>
    <contour>
      <point x="123.6" y="560.6" type="line"/>
      <point x="129.6" y="601.6"/>
      <point x="165.8" y="633"/>
      <point x="210.8" y="633" type="curve" smooth="yes"/>
      <point x="271.8" y="633"/>
      <point x="280.8" y="586"/>
      <point x="334.8" y="586" type="curve" smooth="yes"/>
      <point x="357.8" y="586"/>
      <point x="372.8" y="602"/>
      <point x="390.8" y="634" type="curve"/>
      <point x="422.4" y="607" type="line"/>
      <point x="406.4" y="570"/>
      <point x="374.4" y="542"/>
      <point x="332.4" y="542" type="curve" smooth="yes"/>
      <point x="277.4" y="542"/>
      <point x="256" y="589"/>
      <point x="211" y="589" type="curve" smooth="yes"/>
      <point x="170" y="589"/>
      <point x="159.4" y="557"/>
      <point x="159.4" y="538" type="curve"/>
    </contour>
  </outline>
</glyph>
